<svg xmlns="http://www.w3.org/2000/svg" width="752" height="480">
    <style>line, path, circle,rect,polygon {
                          stroke: black;
                          stroke-width: 2;
                          stroke-opacity: 1;
                          fill-opacity: 1;
                          stroke-linecap: round;
                          stroke-linejoin: miter;
                        }

                    text {
                        /* This fix the spacing bug in svg text*/
                        white-space: pre;
                        fill: black;
                        }
                        rect.backdrop{
                            stroke: none;
                            fill: white;
                        }
                        .broken{
                            stroke-dasharray: 8;
                        }
                        .filled{
                            fill: black;
                        }
                        .bg_filled{
                            fill: white;
                        }
                        .nofill{
                            fill: white;
                        }

                        text {
                         font-family: Monospace;
                         font-size: 14px;
                        }

                        .end_marked_arrow{
                            marker-end: url(#arrow);
                         }
                        .start_marked_arrow{
                            marker-start: url(#arrow);
                         }

                        .end_marked_diamond{
                            marker-end: url(#diamond);
                         }
                        .start_marked_diamond{
                            marker-start: url(#diamond);
                         }

                        .end_marked_circle{
                            marker-end: url(#circle);
                         }
                        .start_marked_circle{
                            marker-start: url(#circle);
                         }

                        .end_marked_open_circle{
                            marker-end: url(#open_circle);
                         }
                        .start_marked_open_circle{
                            marker-start: url(#open_circle);
                         }

                        .end_marked_big_open_circle{
                            marker-end: url(#big_open_circle);
                         }
                        .start_marked_big_open_circle{
                            marker-start: url(#big_open_circle);
                         }

                         
                        </style>
    <defs>
        <marker id="arrow" viewBox="-2 -2 8 8" refX="4" refY="2" markerWidth="7" markerHeight="7" orient="auto-start-reverse">
            <polygon points="0,0 0,4 4,2 0,0"></polygon>
        </marker>
        <marker id="diamond" viewBox="-2 -2 8 8" refX="4" refY="2" markerWidth="7" markerHeight="7" orient="auto-start-reverse">
            <polygon points="0,2 2,0 4,2 2,4 0,2"></polygon>
        </marker>
        <marker id="circle" viewBox="0 0 8 8" refX="4" refY="4" markerWidth="7" markerHeight="7" orient="auto-start-reverse">
            <circle cx="4" cy="4" r="2" class="filled"></circle>
        </marker>
        <marker id="open_circle" viewBox="0 0 8 8" refX="4" refY="4" markerWidth="7" markerHeight="7" orient="auto-start-reverse">
            <circle cx="4" cy="4" r="2" class="bg_filled"></circle>
        </marker>
        <marker id="big_open_circle" viewBox="0 0 8 8" refX="4" refY="4" markerWidth="7" markerHeight="7" orient="auto-start-reverse">
            <circle cx="4" cy="4" r="3" class="bg_filled"></circle>
        </marker>
    </defs>
    <rect class="backdrop" x="0" y="0" width="752" height="480"></rect>
    <text x="18" y="60" >3DP</text>
    <line x1="40" y1="64" x2="48" y2="64" class="solid"></line>
    <text x="50" y="60" >MEASURE</text>
    <line x1="104" y1="64" x2="112" y2="64" class="solid"></line>
    <text x="114" y="60" >MESH</text>
    <line x1="144" y1="64" x2="152" y2="64" class="solid"></line>
    <text x="154" y="60" >QUALITY</text>
    <circle cx="252" cy="56" r="4" class="nofill"></circle>
    <text x="298" y="60" >:MODEL</text>
    <text x="530" y="60" >part</text>
    <circle cx="620" cy="56" r="4" class="nofill"></circle>
    <text x="666" y="60" >COMPLETE</text>
    <text x="298" y="108" >:MESH</text>
    <line x1="336" y1="112" x2="344" y2="112" class="solid"></line>
    <text x="346" y="108" >PART</text>
    <text x="530" y="108" >part</text>
    <text x="298" y="156" >:WARNING</text>
    <line x1="360" y1="160" x2="368" y2="160" class="solid"></line>
    <text x="370" y="156" >TOLERANCE</text>
    <text x="530" y="156" >number</text>
    <text x="298" y="204" >:ERROR</text>
    <line x1="344" y1="208" x2="352" y2="208" class="solid"></line>
    <text x="354" y="204" >TOLERANCE</text>
    <text x="530" y="204" >number</text>
    <text x="298" y="252" >:WARNING</text>
    <line x1="360" y1="256" x2="368" y2="256" class="solid"></line>
    <text x="370" y="252" >COLOR</text>
    <text x="530" y="252" >rgb</text>
    <text x="298" y="300" >:ERROR</text>
    <line x1="344" y1="304" x2="352" y2="304" class="solid"></line>
    <text x="354" y="300" >COLOR</text>
    <text x="530" y="300" >rgb</text>
    <text x="298" y="348" >:UNASSIGNED</text>
    <line x1="384" y1="352" x2="392" y2="352" class="solid"></line>
    <text x="394" y="348" >COLOR</text>
    <text x="530" y="348" >rgb</text>
    <text x="298" y="396" >:MODEL</text>
    <line x1="344" y1="400" x2="352" y2="400" class="solid"></line>
    <text x="354" y="396" >FACE</text>
    <line x1="384" y1="400" x2="392" y2="400" class="solid"></line>
    <text x="394" y="396" >COLOR</text>
    <text x="530" y="396" >rgb</text>
    <text x="298" y="444" >:UNASSIGNED</text>
    <line x1="384" y1="448" x2="392" y2="448" class="solid"></line>
    <text x="394" y="444" >FACE</text>
    <line x1="424" y1="448" x2="432" y2="448" class="solid"></line>
    <text x="434" y="444" >COLOR</text>
    <text x="530" y="444" >rgb</text>
    <g>
        <path d="M 256,8 A 4,4 0,0,0 252,12" class="nofill"></path>
        <line x1="252" y1="12" x2="252" y2="52" class="solid"></line>
        <line x1="256" y1="8" x2="264" y2="8" class="solid"></line>
        <polygon points="272,4 264,8 272,12" class="filled"></polygon>
        <line x1="272" y1="8" x2="600" y2="8" class="solid"></line>
        <polygon points="608,4 600,8 608,12" class="filled"></polygon>
        <line x1="608" y1="8" x2="616" y2="8" class="solid"></line>
        <path d="M 616,8 A 4,4 0,0,1 620,12" class="nofill"></path>
        <line x1="620" y1="12" x2="620" y2="52" class="solid"></line>
    </g>
    <g>
        <line x1="4" y1="40" x2="220" y2="40" class="solid"></line>
        <line x1="4" y1="40" x2="4" y2="72" class="solid"></line>
        <line x1="220" y1="40" x2="220" y2="72" class="solid"></line>
        <line x1="220" y1="56" x2="232" y2="56" class="solid"></line>
        <polygon points="232,52 240,56 232,60" class="filled"></polygon>
        <line x1="240" y1="56" x2="248" y2="56" class="solid"></line>
        <line x1="4" y1="72" x2="220" y2="72" class="solid"></line>
    </g>
    <g>
        <path d="M 288,40 A 4,4 0,0,0 284,44" class="nofill"></path>
        <line x1="284" y1="44" x2="284" y2="68" class="solid"></line>
        <line x1="288" y1="40" x2="352" y2="40" class="solid"></line>
        <path d="M 352,40 A 4,4 0,0,1 356,44" class="nofill"></path>
        <line x1="356" y1="44" x2="356" y2="68" class="solid"></line>
        <line x1="356" y1="56" x2="496" y2="56" class="solid"></line>
        <polygon points="496,52 504,56 496,60" class="filled"></polygon>
        <path d="M 284,68 A 4,4 0,0,0 288,72" class="nofill"></path>
        <line x1="288" y1="72" x2="352" y2="72" class="solid"></line>
        <path d="M 356,68 A 4,4 0,0,1 352,72" class="nofill"></path>
        <path d="M 528,40 A 8,8 0,0,0 522,44" class="nofill"></path>
        <line x1="522" y1="44" x2="510" y2="68" class="solid"></line>
        <line x1="528" y1="40" x2="576" y2="40" class="solid"></line>
        <path d="M 576,40 A 3,3 0,0,1 578,44" class="nofill"></path>
        <line x1="578" y1="44" x2="566" y2="68" class="solid"></line>
        <line x1="504" y1="56" x2="516" y2="56" class="solid"></line>
        <line x1="572" y1="56" x2="600" y2="56" class="solid"></line>
        <polygon points="600,52 608,56 600,60" class="filled"></polygon>
        <line x1="608" y1="56" x2="616" y2="56" class="solid"></line>
        <path d="M 510,68 A 3,3 0,0,0 512,72" class="nofill"></path>
        <line x1="512" y1="72" x2="560" y2="72" class="solid"></line>
        <path d="M 566,68 A 8,8 0,0,1 560,72" class="nofill"></path>
        <line x1="256" y1="56" x2="264" y2="56" class="solid"></line>
        <polygon points="264,52 272,56 264,60" class="filled"></polygon>
        <line x1="272" y1="56" x2="284" y2="56" class="solid"></line>
    </g>
    <g>
        <line x1="652" y1="40" x2="740" y2="40" class="solid"></line>
        <line x1="652" y1="40" x2="652" y2="72" class="solid"></line>
        <line x1="740" y1="40" x2="740" y2="72" class="solid"></line>
        <line x1="652" y1="72" x2="740" y2="72" class="solid"></line>
        <line x1="624" y1="56" x2="632" y2="56" class="solid"></line>
        <polygon points="632,52 640,56 632,60" class="filled"></polygon>
        <line x1="640" y1="56" x2="652" y2="56" class="solid"></line>
    </g>
    <g>
        <line x1="252" y1="60" x2="252" y2="436" class="solid"></line>
        <line x1="252" y1="104" x2="264" y2="104" class="solid"></line>
        <polygon points="264,100 272,104 264,108" class="filled"></polygon>
        <line x1="252" y1="152" x2="264" y2="152" class="solid"></line>
        <polygon points="264,148 272,152 264,156" class="filled"></polygon>
        <line x1="252" y1="200" x2="264" y2="200" class="solid"></line>
        <polygon points="264,196 272,200 264,204" class="filled"></polygon>
        <line x1="252" y1="248" x2="264" y2="248" class="solid"></line>
        <polygon points="264,244 272,248 264,252" class="filled"></polygon>
        <line x1="252" y1="296" x2="264" y2="296" class="solid"></line>
        <polygon points="264,292 272,296 264,300" class="filled"></polygon>
        <line x1="252" y1="344" x2="264" y2="344" class="solid"></line>
        <polygon points="264,340 272,344 264,348" class="filled"></polygon>
        <line x1="252" y1="392" x2="264" y2="392" class="solid"></line>
        <polygon points="264,388 272,392 264,396" class="filled"></polygon>
        <path d="M 252,436 A 4,4 0,0,0 256,440" class="nofill"></path>
        <line x1="256" y1="440" x2="264" y2="440" class="solid"></line>
        <polygon points="264,436 272,440 264,444" class="filled"></polygon>
        <path d="M 288,88 A 4,4 0,0,0 284,92" class="nofill"></path>
        <line x1="284" y1="92" x2="284" y2="116" class="solid"></line>
        <line x1="288" y1="88" x2="384" y2="88" class="solid"></line>
        <path d="M 384,88 A 4,4 0,0,1 388,92" class="nofill"></path>
        <line x1="388" y1="92" x2="388" y2="116" class="solid"></line>
        <line x1="272" y1="104" x2="284" y2="104" class="solid"></line>
        <line x1="388" y1="104" x2="496" y2="104" class="solid"></line>
        <polygon points="496,100 504,104 496,108" class="filled"></polygon>
        <path d="M 284,116 A 4,4 0,0,0 288,120" class="nofill"></path>
        <line x1="288" y1="120" x2="384" y2="120" class="solid"></line>
        <path d="M 388,116 A 4,4 0,0,1 384,120" class="nofill"></path>
        <path d="M 528,88 A 8,8 0,0,0 522,92" class="nofill"></path>
        <line x1="522" y1="92" x2="510" y2="116" class="solid"></line>
        <line x1="528" y1="88" x2="576" y2="88" class="solid"></line>
        <path d="M 576,88 A 3,3 0,0,1 578,92" class="nofill"></path>
        <line x1="578" y1="92" x2="566" y2="116" class="solid"></line>
        <line x1="504" y1="104" x2="516" y2="104" class="solid"></line>
        <line x1="572" y1="104" x2="584" y2="104" class="solid"></line>
        <polygon points="584,100 592,104 584,108" class="filled"></polygon>
        <line x1="592" y1="104" x2="620" y2="104" class="solid"></line>
        <path d="M 510,116 A 3,3 0,0,0 512,120" class="nofill"></path>
        <line x1="512" y1="120" x2="560" y2="120" class="solid"></line>
        <path d="M 566,116 A 8,8 0,0,1 560,120" class="nofill"></path>
        <path d="M 288,136 A 4,4 0,0,0 284,140" class="nofill"></path>
        <line x1="284" y1="140" x2="284" y2="164" class="solid"></line>
        <line x1="288" y1="136" x2="448" y2="136" class="solid"></line>
        <path d="M 448,136 A 4,4 0,0,1 452,140" class="nofill"></path>
        <line x1="452" y1="140" x2="452" y2="164" class="solid"></line>
        <line x1="272" y1="152" x2="284" y2="152" class="solid"></line>
        <line x1="452" y1="152" x2="496" y2="152" class="solid"></line>
        <polygon points="496,148 504,152 496,156" class="filled"></polygon>
        <path d="M 284,164 A 4,4 0,0,0 288,168" class="nofill"></path>
        <line x1="288" y1="168" x2="448" y2="168" class="solid"></line>
        <path d="M 452,164 A 4,4 0,0,1 448,168" class="nofill"></path>
        <path d="M 528,136 A 8,8 0,0,0 522,140" class="nofill"></path>
        <line x1="522" y1="140" x2="510" y2="164" class="solid"></line>
        <line x1="528" y1="136" x2="592" y2="136" class="solid"></line>
        <path d="M 592,136 A 3,3 0,0,1 594,140" class="nofill"></path>
        <line x1="594" y1="140" x2="582" y2="164" class="solid"></line>
        <line x1="504" y1="152" x2="516" y2="152" class="solid"></line>
        <line x1="588" y1="152" x2="600" y2="152" class="solid"></line>
        <polygon points="600,148 608,152 600,156" class="filled"></polygon>
        <line x1="608" y1="152" x2="620" y2="152" class="solid"></line>
        <path d="M 510,164 A 3,3 0,0,0 512,168" class="nofill"></path>
        <line x1="512" y1="168" x2="576" y2="168" class="solid"></line>
        <path d="M 582,164 A 8,8 0,0,1 576,168" class="nofill"></path>
        <path d="M 288,184 A 4,4 0,0,0 284,188" class="nofill"></path>
        <line x1="284" y1="188" x2="284" y2="212" class="solid"></line>
        <line x1="288" y1="184" x2="432" y2="184" class="solid"></line>
        <path d="M 432,184 A 4,4 0,0,1 436,188" class="nofill"></path>
        <line x1="436" y1="188" x2="436" y2="212" class="solid"></line>
        <line x1="272" y1="200" x2="284" y2="200" class="solid"></line>
        <line x1="436" y1="200" x2="496" y2="200" class="solid"></line>
        <polygon points="496,196 504,200 496,204" class="filled"></polygon>
        <path d="M 284,212 A 4,4 0,0,0 288,216" class="nofill"></path>
        <line x1="288" y1="216" x2="432" y2="216" class="solid"></line>
        <path d="M 436,212 A 4,4 0,0,1 432,216" class="nofill"></path>
        <path d="M 528,184 A 8,8 0,0,0 522,188" class="nofill"></path>
        <line x1="522" y1="188" x2="510" y2="212" class="solid"></line>
        <line x1="528" y1="184" x2="592" y2="184" class="solid"></line>
        <path d="M 592,184 A 3,3 0,0,1 594,188" class="nofill"></path>
        <line x1="594" y1="188" x2="582" y2="212" class="solid"></line>
        <line x1="504" y1="200" x2="516" y2="200" class="solid"></line>
        <line x1="588" y1="200" x2="600" y2="200" class="solid"></line>
        <polygon points="600,196 608,200 600,204" class="filled"></polygon>
        <line x1="608" y1="200" x2="620" y2="200" class="solid"></line>
        <path d="M 510,212 A 3,3 0,0,0 512,216" class="nofill"></path>
        <line x1="512" y1="216" x2="576" y2="216" class="solid"></line>
        <path d="M 582,212 A 8,8 0,0,1 576,216" class="nofill"></path>
        <path d="M 288,232 A 4,4 0,0,0 284,236" class="nofill"></path>
        <line x1="284" y1="236" x2="284" y2="260" class="solid"></line>
        <line x1="288" y1="232" x2="408" y2="232" class="solid"></line>
        <path d="M 408,232 A 4,4 0,0,1 412,236" class="nofill"></path>
        <line x1="412" y1="236" x2="412" y2="260" class="solid"></line>
        <line x1="272" y1="248" x2="284" y2="248" class="solid"></line>
        <line x1="412" y1="248" x2="496" y2="248" class="solid"></line>
        <polygon points="496,244 504,248 496,252" class="filled"></polygon>
        <path d="M 284,260 A 4,4 0,0,0 288,264" class="nofill"></path>
        <line x1="288" y1="264" x2="408" y2="264" class="solid"></line>
        <path d="M 412,260 A 4,4 0,0,1 408,264" class="nofill"></path>
        <path d="M 528,232 A 8,8 0,0,0 522,236" class="nofill"></path>
        <line x1="522" y1="236" x2="510" y2="260" class="solid"></line>
        <line x1="528" y1="232" x2="568" y2="232" class="solid"></line>
        <path d="M 568,232 A 3,3 0,0,1 570,236" class="nofill"></path>
        <line x1="570" y1="236" x2="558" y2="260" class="solid"></line>
        <line x1="504" y1="248" x2="516" y2="248" class="solid"></line>
        <line x1="564" y1="248" x2="600" y2="248" class="solid"></line>
        <polygon points="600,244 608,248 600,252" class="filled"></polygon>
        <line x1="608" y1="248" x2="620" y2="248" class="solid"></line>
        <path d="M 510,260 A 3,3 0,0,0 512,264" class="nofill"></path>
        <line x1="512" y1="264" x2="552" y2="264" class="solid"></line>
        <path d="M 558,260 A 8,8 0,0,1 552,264" class="nofill"></path>
        <path d="M 288,280 A 4,4 0,0,0 284,284" class="nofill"></path>
        <line x1="284" y1="284" x2="284" y2="308" class="solid"></line>
        <line x1="288" y1="280" x2="400" y2="280" class="solid"></line>
        <path d="M 400,280 A 4,4 0,0,1 404,284" class="nofill"></path>
        <line x1="404" y1="284" x2="404" y2="308" class="solid"></line>
        <line x1="272" y1="296" x2="284" y2="296" class="solid"></line>
        <line x1="404" y1="296" x2="496" y2="296" class="solid"></line>
        <polygon points="496,292 504,296 496,300" class="filled"></polygon>
        <path d="M 284,308 A 4,4 0,0,0 288,312" class="nofill"></path>
        <line x1="288" y1="312" x2="400" y2="312" class="solid"></line>
        <path d="M 404,308 A 4,4 0,0,1 400,312" class="nofill"></path>
        <path d="M 528,280 A 8,8 0,0,0 522,284" class="nofill"></path>
        <line x1="522" y1="284" x2="510" y2="308" class="solid"></line>
        <line x1="528" y1="280" x2="568" y2="280" class="solid"></line>
        <path d="M 568,280 A 3,3 0,0,1 570,284" class="nofill"></path>
        <line x1="570" y1="284" x2="558" y2="308" class="solid"></line>
        <line x1="504" y1="296" x2="516" y2="296" class="solid"></line>
        <line x1="564" y1="296" x2="592" y2="296" class="solid"></line>
        <polygon points="592,292 600,296 592,300" class="filled"></polygon>
        <line x1="600" y1="296" x2="620" y2="296" class="solid"></line>
        <path d="M 510,308 A 3,3 0,0,0 512,312" class="nofill"></path>
        <line x1="512" y1="312" x2="552" y2="312" class="solid"></line>
        <path d="M 558,308 A 8,8 0,0,1 552,312" class="nofill"></path>
        <path d="M 288,328 A 4,4 0,0,0 284,332" class="nofill"></path>
        <line x1="284" y1="332" x2="284" y2="356" class="solid"></line>
        <line x1="288" y1="328" x2="440" y2="328" class="solid"></line>
        <path d="M 440,328 A 4,4 0,0,1 444,332" class="nofill"></path>
        <line x1="444" y1="332" x2="444" y2="356" class="solid"></line>
        <line x1="272" y1="344" x2="284" y2="344" class="solid"></line>
        <line x1="444" y1="344" x2="496" y2="344" class="solid"></line>
        <polygon points="496,340 504,344 496,348" class="filled"></polygon>
        <path d="M 284,356 A 4,4 0,0,0 288,360" class="nofill"></path>
        <line x1="288" y1="360" x2="440" y2="360" class="solid"></line>
        <path d="M 444,356 A 4,4 0,0,1 440,360" class="nofill"></path>
        <path d="M 528,328 A 8,8 0,0,0 522,332" class="nofill"></path>
        <line x1="522" y1="332" x2="510" y2="356" class="solid"></line>
        <line x1="528" y1="328" x2="568" y2="328" class="solid"></line>
        <path d="M 568,328 A 3,3 0,0,1 570,332" class="nofill"></path>
        <line x1="570" y1="332" x2="558" y2="356" class="solid"></line>
        <line x1="504" y1="344" x2="516" y2="344" class="solid"></line>
        <line x1="564" y1="344" x2="600" y2="344" class="solid"></line>
        <polygon points="600,340 608,344 600,348" class="filled"></polygon>
        <line x1="608" y1="344" x2="620" y2="344" class="solid"></line>
        <path d="M 510,356 A 3,3 0,0,0 512,360" class="nofill"></path>
        <line x1="512" y1="360" x2="552" y2="360" class="solid"></line>
        <path d="M 558,356 A 8,8 0,0,1 552,360" class="nofill"></path>
        <path d="M 288,376 A 4,4 0,0,0 284,380" class="nofill"></path>
        <line x1="284" y1="380" x2="284" y2="404" class="solid"></line>
        <line x1="288" y1="376" x2="440" y2="376" class="solid"></line>
        <path d="M 440,376 A 4,4 0,0,1 444,380" class="nofill"></path>
        <line x1="444" y1="380" x2="444" y2="404" class="solid"></line>
        <line x1="272" y1="392" x2="284" y2="392" class="solid"></line>
        <line x1="444" y1="392" x2="496" y2="392" class="solid"></line>
        <polygon points="496,388 504,392 496,396" class="filled"></polygon>
        <path d="M 284,404 A 4,4 0,0,0 288,408" class="nofill"></path>
        <line x1="288" y1="408" x2="440" y2="408" class="solid"></line>
        <path d="M 444,404 A 4,4 0,0,1 440,408" class="nofill"></path>
        <path d="M 528,376 A 8,8 0,0,0 522,380" class="nofill"></path>
        <line x1="522" y1="380" x2="510" y2="404" class="solid"></line>
        <line x1="528" y1="376" x2="568" y2="376" class="solid"></line>
        <path d="M 568,376 A 3,3 0,0,1 570,380" class="nofill"></path>
        <line x1="570" y1="380" x2="558" y2="404" class="solid"></line>
        <line x1="504" y1="392" x2="516" y2="392" class="solid"></line>
        <line x1="564" y1="392" x2="600" y2="392" class="solid"></line>
        <polygon points="600,388 608,392 600,396" class="filled"></polygon>
        <line x1="608" y1="392" x2="620" y2="392" class="solid"></line>
        <path d="M 510,404 A 3,3 0,0,0 512,408" class="nofill"></path>
        <line x1="512" y1="408" x2="552" y2="408" class="solid"></line>
        <path d="M 558,404 A 8,8 0,0,1 552,408" class="nofill"></path>
        <path d="M 288,424 A 4,4 0,0,0 284,428" class="nofill"></path>
        <line x1="284" y1="428" x2="284" y2="452" class="solid"></line>
        <line x1="288" y1="424" x2="480" y2="424" class="solid"></line>
        <path d="M 480,424 A 4,4 0,0,1 484,428" class="nofill"></path>
        <line x1="484" y1="428" x2="484" y2="452" class="solid"></line>
        <line x1="272" y1="440" x2="284" y2="440" class="solid"></line>
        <line x1="484" y1="440" x2="496" y2="440" class="solid"></line>
        <polygon points="496,436 504,440 496,444" class="filled"></polygon>
        <path d="M 284,452 A 4,4 0,0,0 288,456" class="nofill"></path>
        <line x1="288" y1="456" x2="480" y2="456" class="solid"></line>
        <path d="M 484,452 A 4,4 0,0,1 480,456" class="nofill"></path>
        <path d="M 528,424 A 8,8 0,0,0 522,428" class="nofill"></path>
        <line x1="522" y1="428" x2="510" y2="452" class="solid"></line>
        <line x1="528" y1="424" x2="568" y2="424" class="solid"></line>
        <path d="M 568,424 A 3,3 0,0,1 570,428" class="nofill"></path>
        <line x1="570" y1="428" x2="558" y2="452" class="solid"></line>
        <line x1="504" y1="440" x2="516" y2="440" class="solid"></line>
        <line x1="564" y1="440" x2="600" y2="440" class="solid"></line>
        <polygon points="600,436 608,440 600,444" class="filled"></polygon>
        <line x1="608" y1="440" x2="616" y2="440" class="solid"></line>
        <path d="M 620,436 A 4,4 0,0,1 616,440" class="nofill"></path>
        <path d="M 510,452 A 3,3 0,0,0 512,456" class="nofill"></path>
        <line x1="512" y1="456" x2="552" y2="456" class="solid"></line>
        <path d="M 558,452 A 8,8 0,0,1 552,456" class="nofill"></path>
        <line x1="620" y1="60" x2="620" y2="436" class="solid"></line>
    </g>
</svg>