<svg xmlns="http://www.w3.org/2000/svg" width="928" height="208">
    <style>
        line, path, circle, rect, polygon{stroke:black;stroke-width:1;stroke-opacity:1;fill-opacity:1;stroke-linecap:round;stroke-linejoin:miter;}text{font-family:Monospace;font-size:14px;}rect.backdrop{stroke:none;fill:white;}.broken{stroke-dasharray:8;}.filled{fill:black;}.bg_filled{fill:white;}.nofill{fill:white;}.end_marked_arrow{marker-end:url(#arrow);}.start_marked_arrow{marker-start:url(#arrow);}.end_marked_diamond{marker-end:url(#diamond);}.start_marked_diamond{marker-start:url(#diamond);}.end_marked_circle{marker-end:url(#circle);}.start_marked_circle{marker-start:url(#circle);}.end_marked_open_circle{marker-end:url(#open_circle);}.start_marked_open_circle{marker-start:url(#open_circle);}.end_marked_big_open_circle{marker-end:url(#big_open_circle);}.start_marked_big_open_circle{marker-start:url(#big_open_circle);}
        <!--separator-->
        
    </style>
    <defs>
        <marker id="arrow" viewBox="-2 -2 8 8" refX="4" refY="2" markerWidth="7" markerHeight="7" orient="auto-start-reverse">
            <polygon points="0,0 0,4 4,2 0,0"></polygon>
        </marker>
        <marker id="diamond" viewBox="-2 -2 8 8" refX="4" refY="2" markerWidth="7" markerHeight="7" orient="auto-start-reverse">
            <polygon points="0,2 2,0 4,2 2,4 0,2"></polygon>
        </marker>
        <marker id="circle" viewBox="0 0 8 8" refX="4" refY="4" markerWidth="7" markerHeight="7" orient="auto-start-reverse">
            <circle cx="4" cy="4" r="2" class="filled"></circle>
        </marker>
        <marker id="open_circle" viewBox="0 0 8 8" refX="4" refY="4" markerWidth="7" markerHeight="7" orient="auto-start-reverse">
            <circle cx="4" cy="4" r="2" class="bg_filled"></circle>
        </marker>
        <marker id="big_open_circle" viewBox="0 0 8 8" refX="4" refY="4" markerWidth="7" markerHeight="7" orient="auto-start-reverse">
            <circle cx="4" cy="4" r="3" class="bg_filled"></circle>
        </marker>
    </defs>
    <rect class="backdrop" x="0" y="0" width="928" height="208"></rect>
    <rect x="4" y="8" width="440" height="96" class="solid nofill" rx="0"></rect>
    <path d="M 152,16 A 16,16 0,0,0 152,32" class="nofill"></path>
    <text x="154" y="28" >not</text>
    <text x="186" y="28" >connected</text>
    <text x="266" y="28" >to</text>
    <text x="290" y="28" >MM</text>
    <path d="M 304,16 A 16,16 0,0,1 304,32" class="nofill"></path>
    <text x="34" y="60" >Automated</text>
    <text x="114" y="60" >Model</text>
    <text x="162" y="60" >Scan</text>
    <text x="266" y="60" >Interactive</text>
    <text x="34" y="76" >and</text>
    <text x="66" y="76" >Conflict</text>
    <text x="138" y="76" >Resolution</text>
    <text x="266" y="76" >Conflict</text>
    <text x="338" y="76" >Resolution</text>
    <rect x="476" y="8" width="440" height="96" class="solid nofill" rx="0"></rect>
    <path d="M 648,16 A 16,16 0,0,0 648,32" class="nofill"></path>
    <text x="650" y="28" >Connected</text>
    <text x="730" y="28" >to</text>
    <text x="754" y="28" >MM</text>
    <path d="M 768,16 A 16,16 0,0,1 768,32" class="nofill"></path>
    <text x="506" y="60" >Rule</text>
    <text x="546" y="60" >based</text>
    <text x="594" y="60" >automated</text>
    <text x="738" y="60" >Interactive</text>
    <text x="506" y="76" >MM</text>
    <text x="530" y="76" >check</text>
    <line x1="568" y1="72" x2="576" y2="72" class="solid"></line>
    <text x="578" y="76" >in</text>
    <text x="738" y="76" >Conflict</text>
    <text x="810" y="76" >Resolution</text>
    <line x1="744" y1="88" x2="824" y2="88" class="solid"></line>
    <line x1="400" y1="152" x2="408" y2="152" class="solid"></line>
    <line x1="416" y1="152" x2="504" y2="152" class="solid"></line>
    <line x1="512" y1="152" x2="520" y2="152" class="solid"></line>
    <line x1="800" y1="152" x2="824" y2="152" class="solid"></line>
    <line x1="832" y1="152" x2="888" y2="152" class="solid"></line>
    <text x="58" y="172" >Input</text>
    <text x="106" y="172" >Directory</text>
    <text x="394" y="172" >Staging</text>
    <text x="458" y="172" >Directory</text>
    <text x="794" y="172" >Model</text>
    <text x="842" y="172" >Manager</text>
    <line x1="64" y1="184" x2="168" y2="184" class="solid"></line>
    <line x1="400" y1="184" x2="520" y2="184" class="solid"></line>
    <line x1="800" y1="184" x2="888" y2="184" class="solid"></line>
    <g>
        <path d="M 24,40 A 4,4 0,0,0 20,44" class="nofill"></path>
        <line x1="20" y1="44" x2="20" y2="84" class="solid"></line>
        <line x1="24" y1="40" x2="224" y2="40" class="solid"></line>
        <path d="M 224,40 A 4,4 0,0,1 228,44" class="nofill"></path>
        <line x1="228" y1="44" x2="228" y2="84" class="solid"></line>
        <path d="M 20,84 A 4,4 0,0,0 24,88" class="nofill"></path>
        <line x1="24" y1="88" x2="104" y2="88" class="solid"></line>
        <line x1="112" y1="88" x2="224" y2="88" class="solid"></line>
        <path d="M 228,84 A 4,4 0,0,1 224,88" class="nofill"></path>
    </g>
    <g>
        <path d="M 256,40 A 4,4 0,0,0 252,44" class="nofill"></path>
        <line x1="252" y1="44" x2="252" y2="84" class="solid"></line>
        <line x1="256" y1="40" x2="424" y2="40" class="solid"></line>
        <path d="M 424,40 A 4,4 0,0,1 428,44" class="nofill"></path>
        <line x1="428" y1="44" x2="428" y2="84" class="solid"></line>
        <path d="M 252,84 A 4,4 0,0,0 256,88" class="nofill"></path>
        <line x1="256" y1="88" x2="408" y2="88" class="solid"></line>
        <line x1="416" y1="88" x2="424" y2="88" class="solid"></line>
        <path d="M 428,84 A 4,4 0,0,1 424,88" class="nofill"></path>
    </g>
    <g>
        <path d="M 496,40 A 4,4 0,0,0 492,44" class="nofill"></path>
        <line x1="492" y1="44" x2="492" y2="84" class="solid"></line>
        <line x1="496" y1="40" x2="696" y2="40" class="solid"></line>
        <path d="M 696,40 A 4,4 0,0,1 700,44" class="nofill"></path>
        <line x1="700" y1="44" x2="700" y2="84" class="solid"></line>
        <path d="M 492,84 A 4,4 0,0,0 496,88" class="nofill"></path>
        <line x1="496" y1="88" x2="504" y2="88" class="solid"></line>
        <line x1="512" y1="88" x2="696" y2="88" class="solid"></line>
        <path d="M 700,84 A 4,4 0,0,1 696,88" class="nofill"></path>
    </g>
    <g>
        <path d="M 728,40 A 4,4 0,0,0 724,44" class="nofill"></path>
        <line x1="724" y1="44" x2="724" y2="84" class="solid"></line>
        <line x1="728" y1="40" x2="896" y2="40" class="solid"></line>
        <path d="M 896,40 A 4,4 0,0,1 900,44" class="nofill"></path>
        <line x1="900" y1="44" x2="900" y2="84" class="solid"></line>
        <path d="M 724,84 A 4,4 0,0,0 728,88" class="nofill"></path>
        <line x1="728" y1="88" x2="736" y2="88" class="solid"></line>
        <line x1="832" y1="88" x2="896" y2="88" class="solid"></line>
        <path d="M 900,84 A 4,4 0,0,1 896,88" class="nofill"></path>
    </g>
    <g>
        <polygon points="104,92 108,80 112,92" class="filled"></polygon>
        <line x1="108" y1="92" x2="108" y2="148" class="solid"></line>
        <line x1="64" y1="152" x2="104" y2="152" class="solid"></line>
        <path d="M 108,148 A 4,4 0,0,1 104,152" class="nofill"></path>
        <path d="M 108,148 A 4,4 0,0,0 112,152" class="nofill"></path>
        <line x1="112" y1="152" x2="168" y2="152" class="solid"></line>
    </g>
    <g>
        <polygon points="408,92 412,80 416,92" class="filled"></polygon>
        <line x1="412" y1="92" x2="412" y2="148" class="solid"></line>
        <polygon points="408,148 416,148 412,160" class="filled"></polygon>
    </g>
    <g>
        <polygon points="504,92 508,80 512,92" class="filled"></polygon>
        <line x1="508" y1="92" x2="508" y2="148" class="solid"></line>
        <polygon points="504,148 512,148 508,160" class="filled"></polygon>
    </g>
    <g>
        <polygon points="736,92 740,80 744,92" class="filled"></polygon>
        <line x1="740" y1="92" x2="740" y2="164" class="solid"></line>
        <polygon points="560,164 552,168 560,172" class="filled"></polygon>
        <line x1="560" y1="168" x2="736" y2="168" class="solid"></line>
        <path d="M 740,164 A 4,4 0,0,1 736,168" class="nofill"></path>
    </g>
    <g>
        <polygon points="824,92 828,80 832,92" class="filled"></polygon>
        <line x1="828" y1="92" x2="828" y2="148" class="solid"></line>
        <polygon points="824,148 832,148 828,160" class="filled"></polygon>
    </g>
    <g>
        <path d="M 56,152 A 8,8 0,0,0 50,156" class="nofill"></path>
        <line x1="50" y1="156" x2="48" y2="160" class="solid"></line>
        <path d="M 48,160 A 16,16 0,0,0 48,176" class="nofill"></path>
        <line x1="48" y1="176" x2="50" y2="180" class="solid"></line>
        <path d="M 50,180 A 8,8 0,0,0 56,184" class="nofill"></path>
    </g>
    <g>
        <path d="M 176,152 A 8,8 0,0,1 182,156" class="nofill"></path>
        <line x1="182" y1="156" x2="184" y2="160" class="solid"></line>
        <path d="M 184,160 A 16,16 0,0,1 184,176" class="nofill"></path>
        <line x1="184" y1="176" x2="182" y2="180" class="solid"></line>
        <path d="M 182,180 A 8,8 0,0,1 176,184" class="nofill"></path>
    </g>
    <g>
        <path d="M 392,152 A 8,8 0,0,0 386,156" class="nofill"></path>
        <line x1="386" y1="156" x2="384" y2="160" class="solid"></line>
        <path d="M 384,160 A 16,16 0,0,0 384,176" class="nofill"></path>
        <line x1="384" y1="176" x2="386" y2="180" class="solid"></line>
        <path d="M 386,180 A 8,8 0,0,0 392,184" class="nofill"></path>
    </g>
    <g>
        <path d="M 528,152 A 8,8 0,0,1 534,156" class="nofill"></path>
        <line x1="534" y1="156" x2="536" y2="160" class="solid"></line>
        <path d="M 536,160 A 16,16 0,0,1 536,176" class="nofill"></path>
        <line x1="536" y1="176" x2="534" y2="180" class="solid"></line>
        <path d="M 534,180 A 8,8 0,0,1 528,184" class="nofill"></path>
    </g>
    <g>
        <path d="M 792,152 A 8,8 0,0,0 786,156" class="nofill"></path>
        <line x1="786" y1="156" x2="784" y2="160" class="solid"></line>
        <path d="M 784,160 A 16,16 0,0,0 784,176" class="nofill"></path>
        <line x1="784" y1="176" x2="786" y2="180" class="solid"></line>
        <path d="M 786,180 A 8,8 0,0,0 792,184" class="nofill"></path>
    </g>
    <g>
        <path d="M 896,152 A 8,8 0,0,1 902,156" class="nofill"></path>
        <line x1="902" y1="156" x2="904" y2="160" class="solid"></line>
        <path d="M 904,160 A 16,16 0,0,1 904,176" class="nofill"></path>
        <line x1="904" y1="176" x2="902" y2="180" class="solid"></line>
        <path d="M 902,180 A 8,8 0,0,1 896,184" class="nofill"></path>
    </g>
</svg>