<svg xmlns="http://www.w3.org/2000/svg" width="552" height="144">
    <style>
        line, path, circle, rect, polygon{stroke:black;stroke-width:1;stroke-opacity:1;fill-opacity:1;stroke-linecap:round;stroke-linejoin:miter;}text{font-family:Monospace;font-size:14px;}rect.backdrop{stroke:none;fill:white;}.broken{stroke-dasharray:8;}.filled{fill:black;}.bg_filled{fill:white;}.nofill{fill:white;}.end_marked_arrow{marker-end:url(#arrow);}.start_marked_arrow{marker-start:url(#arrow);}.end_marked_diamond{marker-end:url(#diamond);}.start_marked_diamond{marker-start:url(#diamond);}.end_marked_circle{marker-end:url(#circle);}.start_marked_circle{marker-start:url(#circle);}.end_marked_open_circle{marker-end:url(#open_circle);}.start_marked_open_circle{marker-start:url(#open_circle);}.end_marked_big_open_circle{marker-end:url(#big_open_circle);}.start_marked_big_open_circle{marker-start:url(#big_open_circle);}
        <!--separator-->
        
    </style>
    <defs>
        <marker id="arrow" viewBox="-2 -2 8 8" refX="4" refY="2" markerWidth="7" markerHeight="7" orient="auto-start-reverse">
            <polygon points="0,0 0,4 4,2 0,0"></polygon>
        </marker>
        <marker id="diamond" viewBox="-2 -2 8 8" refX="4" refY="2" markerWidth="7" markerHeight="7" orient="auto-start-reverse">
            <polygon points="0,2 2,0 4,2 2,4 0,2"></polygon>
        </marker>
        <marker id="circle" viewBox="0 0 8 8" refX="4" refY="4" markerWidth="7" markerHeight="7" orient="auto-start-reverse">
            <circle cx="4" cy="4" r="2" class="filled"></circle>
        </marker>
        <marker id="open_circle" viewBox="0 0 8 8" refX="4" refY="4" markerWidth="7" markerHeight="7" orient="auto-start-reverse">
            <circle cx="4" cy="4" r="2" class="bg_filled"></circle>
        </marker>
        <marker id="big_open_circle" viewBox="0 0 8 8" refX="4" refY="4" markerWidth="7" markerHeight="7" orient="auto-start-reverse">
            <circle cx="4" cy="4" r="3" class="bg_filled"></circle>
        </marker>
    </defs>
    <rect class="backdrop" x="0" y="0" width="552" height="144"></rect>
    <text x="18" y="60" >KYM</text>
    <line x1="40" y1="64" x2="48" y2="64" class="solid"></line>
    <text x="50" y="60" >SETTINGS</text>
    <circle cx="156" cy="56" r="4" class="nofill"></circle>
    <text x="202" y="60" >:MY</text>
    <line x1="224" y1="64" x2="232" y2="64" class="solid"></line>
    <text x="234" y="60" >VAR</text>
    <text x="322" y="60" >string</text>
    <circle cx="420" cy="56" r="4" class="nofill"></circle>
    <text x="466" y="60" >COMPLETE</text>
    <text x="202" y="108" >:RESET</text>
    <g>
        <path d="M 160,8 A 4,4 0,0,0 156,12" class="nofill"></path>
        <line x1="156" y1="12" x2="156" y2="52" class="solid"></line>
        <line x1="160" y1="8" x2="168" y2="8" class="solid"></line>
        <polygon points="176,4 168,8 176,12" class="filled"></polygon>
        <line x1="176" y1="8" x2="288" y2="8" class="solid"></line>
        <polygon points="296,4 288,8 296,12" class="filled"></polygon>
        <line x1="296" y1="8" x2="400" y2="8" class="solid"></line>
        <polygon points="408,4 400,8 408,12" class="filled"></polygon>
        <line x1="408" y1="8" x2="416" y2="8" class="solid"></line>
        <path d="M 416,8 A 4,4 0,0,1 420,12" class="nofill"></path>
        <line x1="420" y1="12" x2="420" y2="52" class="solid"></line>
    </g>
    <g>
        <line x1="4" y1="40" x2="124" y2="40" class="solid"></line>
        <line x1="4" y1="40" x2="4" y2="72" class="solid"></line>
        <line x1="124" y1="40" x2="124" y2="72" class="solid"></line>
        <line x1="124" y1="56" x2="136" y2="56" class="solid"></line>
        <polygon points="136,52 144,56 136,60" class="filled"></polygon>
        <line x1="144" y1="56" x2="152" y2="56" class="solid"></line>
        <line x1="4" y1="72" x2="124" y2="72" class="solid"></line>
    </g>
    <g>
        <path d="M 192,40 A 4,4 0,0,0 188,44" class="nofill"></path>
        <line x1="188" y1="44" x2="188" y2="68" class="solid"></line>
        <line x1="192" y1="40" x2="264" y2="40" class="solid"></line>
        <path d="M 264,40 A 4,4 0,0,1 268,44" class="nofill"></path>
        <line x1="268" y1="44" x2="268" y2="68" class="solid"></line>
        <line x1="268" y1="56" x2="280" y2="56" class="solid"></line>
        <polygon points="280,52 288,56 280,60" class="filled"></polygon>
        <line x1="288" y1="56" x2="296" y2="56" class="solid"></line>
        <path d="M 188,68 A 4,4 0,0,0 192,72" class="nofill"></path>
        <line x1="192" y1="72" x2="264" y2="72" class="solid"></line>
        <path d="M 268,68 A 4,4 0,0,1 264,72" class="nofill"></path>
        <line x1="160" y1="56" x2="168" y2="56" class="solid"></line>
        <polygon points="168,52 176,56 168,60" class="filled"></polygon>
        <line x1="176" y1="56" x2="188" y2="56" class="solid"></line>
    </g>
    <g>
        <path d="M 320,40 A 8,8 0,0,0 314,44" class="nofill"></path>
        <line x1="314" y1="44" x2="302" y2="68" class="solid"></line>
        <line x1="320" y1="40" x2="384" y2="40" class="solid"></line>
        <path d="M 384,40 A 3,3 0,0,1 386,44" class="nofill"></path>
        <line x1="386" y1="44" x2="374" y2="68" class="solid"></line>
        <line x1="380" y1="56" x2="400" y2="56" class="solid"></line>
        <polygon points="400,52 408,56 400,60" class="filled"></polygon>
        <line x1="408" y1="56" x2="416" y2="56" class="solid"></line>
        <path d="M 302,68 A 3,3 0,0,0 304,72" class="nofill"></path>
        <line x1="304" y1="72" x2="368" y2="72" class="solid"></line>
        <path d="M 374,68 A 8,8 0,0,1 368,72" class="nofill"></path>
    </g>
    <g>
        <line x1="452" y1="40" x2="540" y2="40" class="solid"></line>
        <line x1="452" y1="40" x2="452" y2="72" class="solid"></line>
        <line x1="540" y1="40" x2="540" y2="72" class="solid"></line>
        <line x1="452" y1="72" x2="540" y2="72" class="solid"></line>
        <line x1="424" y1="56" x2="432" y2="56" class="solid"></line>
        <polygon points="432,52 440,56 432,60" class="filled"></polygon>
        <line x1="440" y1="56" x2="452" y2="56" class="solid"></line>
    </g>
    <g>
        <line x1="156" y1="60" x2="156" y2="100" class="solid"></line>
        <path d="M 156,100 A 4,4 0,0,0 160,104" class="nofill"></path>
        <line x1="160" y1="104" x2="168" y2="104" class="solid"></line>
        <polygon points="168,100 176,104 168,108" class="filled"></polygon>
        <path d="M 192,88 A 4,4 0,0,0 188,92" class="nofill"></path>
        <line x1="188" y1="92" x2="188" y2="116" class="solid"></line>
        <line x1="192" y1="88" x2="256" y2="88" class="solid"></line>
        <path d="M 256,88 A 4,4 0,0,1 260,92" class="nofill"></path>
        <line x1="260" y1="92" x2="260" y2="116" class="solid"></line>
        <line x1="176" y1="104" x2="188" y2="104" class="solid"></line>
        <line x1="260" y1="104" x2="400" y2="104" class="solid"></line>
        <polygon points="400,100 408,104 400,108" class="filled"></polygon>
        <line x1="408" y1="104" x2="416" y2="104" class="solid"></line>
        <path d="M 420,100 A 4,4 0,0,1 416,104" class="nofill"></path>
        <path d="M 188,116 A 4,4 0,0,0 192,120" class="nofill"></path>
        <line x1="192" y1="120" x2="256" y2="120" class="solid"></line>
        <path d="M 260,116 A 4,4 0,0,1 256,120" class="nofill"></path>
        <line x1="420" y1="60" x2="420" y2="100" class="solid"></line>
    </g>
</svg>