<svg xmlns="http://www.w3.org/2000/svg" width="688" height="432">
    <style>
        line, path, circle, rect, polygon{stroke:black;stroke-width:1;stroke-opacity:1;fill-opacity:1;stroke-linecap:round;stroke-linejoin:miter;}text{font-family:Monospace;font-size:14px;}rect.backdrop{stroke:none;fill:white;}.broken{stroke-dasharray:8;}.filled{fill:black;}.bg_filled{fill:white;}.nofill{fill:white;}.end_marked_arrow{marker-end:url(#arrow);}.start_marked_arrow{marker-start:url(#arrow);}.end_marked_diamond{marker-end:url(#diamond);}.start_marked_diamond{marker-start:url(#diamond);}.end_marked_circle{marker-end:url(#circle);}.start_marked_circle{marker-start:url(#circle);}.end_marked_open_circle{marker-end:url(#open_circle);}.start_marked_open_circle{marker-start:url(#open_circle);}.end_marked_big_open_circle{marker-end:url(#big_open_circle);}.start_marked_big_open_circle{marker-start:url(#big_open_circle);}
        <!--separator-->
        
    </style>
    <defs>
        <marker id="arrow" viewBox="-2 -2 8 8" refX="4" refY="2" markerWidth="7" markerHeight="7" orient="auto-start-reverse">
            <polygon points="0,0 0,4 4,2 0,0"></polygon>
        </marker>
        <marker id="diamond" viewBox="-2 -2 8 8" refX="4" refY="2" markerWidth="7" markerHeight="7" orient="auto-start-reverse">
            <polygon points="0,2 2,0 4,2 2,4 0,2"></polygon>
        </marker>
        <marker id="circle" viewBox="0 0 8 8" refX="4" refY="4" markerWidth="7" markerHeight="7" orient="auto-start-reverse">
            <circle cx="4" cy="4" r="2" class="filled"></circle>
        </marker>
        <marker id="open_circle" viewBox="0 0 8 8" refX="4" refY="4" markerWidth="7" markerHeight="7" orient="auto-start-reverse">
            <circle cx="4" cy="4" r="2" class="bg_filled"></circle>
        </marker>
        <marker id="big_open_circle" viewBox="0 0 8 8" refX="4" refY="4" markerWidth="7" markerHeight="7" orient="auto-start-reverse">
            <circle cx="4" cy="4" r="3" class="bg_filled"></circle>
        </marker>
    </defs>
    <rect class="backdrop" x="0" y="0" width="688" height="432"></rect>
    <text x="18" y="60" >3DP</text>
    <line x1="40" y1="64" x2="48" y2="64" class="solid"></line>
    <text x="50" y="60" >SETTINGS</text>
    <circle cx="156" cy="56" r="4" class="nofill"></circle>
    <text x="202" y="60" >:RECOGNITION</text>
    <line x1="296" y1="56" x2="304" y2="56" class="solid"></line>
    <text x="306" y="60" >PRECISION</text>
    <text x="434" y="60" >number</text>
    <circle cx="556" cy="56" r="4" class="nofill"></circle>
    <text x="602" y="60" >COMPLETE</text>
    <text x="202" y="108" >:LIGHTWEIGHT</text>
    <text x="434" y="108" >:ON</text>
    <line x1="464" y1="96" x2="456" y2="112" class="solid"></line>
    <text x="466" y="108" >:OFF</text>
    <text x="202" y="156" >:PLANE</text>
    <line x1="248" y1="160" x2="256" y2="160" class="solid"></line>
    <text x="258" y="156" >RECOG</text>
    <text x="434" y="156" >:ON</text>
    <line x1="464" y1="144" x2="456" y2="160" class="solid"></line>
    <text x="466" y="156" >:OFF</text>
    <text x="202" y="204" >:PLANE</text>
    <line x1="248" y1="208" x2="256" y2="208" class="solid"></line>
    <text x="258" y="204" >RECOG</text>
    <text x="434" y="204" >:ON</text>
    <line x1="464" y1="192" x2="456" y2="208" class="solid"></line>
    <text x="466" y="204" >:OFF</text>
    <text x="202" y="252" >:CYLINDER</text>
    <line x1="272" y1="256" x2="280" y2="256" class="solid"></line>
    <text x="282" y="252" >RECOG</text>
    <text x="426" y="252" >:ON</text>
    <line x1="456" y1="240" x2="448" y2="256" class="solid"></line>
    <text x="458" y="252" >:OFF</text>
    <text x="202" y="300" >:MERGE</text>
    <text x="426" y="300" >:ON</text>
    <line x1="456" y1="288" x2="448" y2="304" class="solid"></line>
    <text x="458" y="300" >:OFF</text>
    <text x="202" y="348" >:FACE</text>
    <line x1="240" y1="352" x2="248" y2="352" class="solid"></line>
    <text x="250" y="348" >LIMIT</text>
    <text x="426" y="348" >integer</text>
    <text x="202" y="396" >:RESET</text>
    <g>
        <path d="M 160,8 A 4,4 0,0,0 156,12" class="nofill"></path>
        <line x1="156" y1="12" x2="156" y2="52" class="solid"></line>
        <line x1="160" y1="8" x2="168" y2="8" class="solid"></line>
        <polygon points="176,4 168,8 176,12" class="filled"></polygon>
        <line x1="176" y1="8" x2="536" y2="8" class="solid"></line>
        <polygon points="544,4 536,8 544,12" class="filled"></polygon>
        <line x1="544" y1="8" x2="552" y2="8" class="solid"></line>
        <path d="M 552,8 A 4,4 0,0,1 556,12" class="nofill"></path>
        <line x1="556" y1="12" x2="556" y2="52" class="solid"></line>
    </g>
    <g>
        <line x1="4" y1="40" x2="124" y2="40" class="solid"></line>
        <line x1="4" y1="40" x2="4" y2="72" class="solid"></line>
        <line x1="124" y1="40" x2="124" y2="72" class="solid"></line>
        <line x1="124" y1="56" x2="136" y2="56" class="solid"></line>
        <polygon points="136,52 144,56 136,60" class="filled"></polygon>
        <line x1="144" y1="56" x2="152" y2="56" class="solid"></line>
        <line x1="4" y1="72" x2="124" y2="72" class="solid"></line>
    </g>
    <g>
        <path d="M 192,40 A 4,4 0,0,0 188,44" class="nofill"></path>
        <line x1="188" y1="44" x2="188" y2="68" class="solid"></line>
        <line x1="192" y1="40" x2="384" y2="40" class="solid"></line>
        <path d="M 384,40 A 4,4 0,0,1 388,44" class="nofill"></path>
        <line x1="388" y1="44" x2="388" y2="68" class="solid"></line>
        <line x1="388" y1="56" x2="400" y2="56" class="solid"></line>
        <polygon points="400,52 408,56 400,60" class="filled"></polygon>
        <path d="M 188,68 A 4,4 0,0,0 192,72" class="nofill"></path>
        <line x1="192" y1="72" x2="384" y2="72" class="solid"></line>
        <path d="M 388,68 A 4,4 0,0,1 384,72" class="nofill"></path>
        <path d="M 432,40 A 8,8 0,0,0 426,44" class="nofill"></path>
        <line x1="426" y1="44" x2="414" y2="68" class="solid"></line>
        <line x1="432" y1="40" x2="496" y2="40" class="solid"></line>
        <path d="M 496,40 A 3,3 0,0,1 498,44" class="nofill"></path>
        <line x1="498" y1="44" x2="486" y2="68" class="solid"></line>
        <line x1="408" y1="56" x2="420" y2="56" class="solid"></line>
        <line x1="492" y1="56" x2="536" y2="56" class="solid"></line>
        <polygon points="536,52 544,56 536,60" class="filled"></polygon>
        <line x1="544" y1="56" x2="552" y2="56" class="solid"></line>
        <path d="M 414,68 A 3,3 0,0,0 416,72" class="nofill"></path>
        <line x1="416" y1="72" x2="480" y2="72" class="solid"></line>
        <path d="M 486,68 A 8,8 0,0,1 480,72" class="nofill"></path>
        <line x1="160" y1="56" x2="168" y2="56" class="solid"></line>
        <polygon points="168,52 176,56 168,60" class="filled"></polygon>
        <line x1="176" y1="56" x2="188" y2="56" class="solid"></line>
    </g>
    <g>
        <line x1="588" y1="40" x2="676" y2="40" class="solid"></line>
        <line x1="588" y1="40" x2="588" y2="72" class="solid"></line>
        <line x1="676" y1="40" x2="676" y2="72" class="solid"></line>
        <line x1="588" y1="72" x2="676" y2="72" class="solid"></line>
        <line x1="560" y1="56" x2="568" y2="56" class="solid"></line>
        <polygon points="568,52 576,56 568,60" class="filled"></polygon>
        <line x1="576" y1="56" x2="588" y2="56" class="solid"></line>
    </g>
    <g>
        <line x1="156" y1="60" x2="156" y2="388" class="solid"></line>
        <line x1="156" y1="104" x2="168" y2="104" class="solid"></line>
        <polygon points="168,100 176,104 168,108" class="filled"></polygon>
        <line x1="156" y1="152" x2="168" y2="152" class="solid"></line>
        <polygon points="168,148 176,152 168,156" class="filled"></polygon>
        <line x1="156" y1="200" x2="168" y2="200" class="solid"></line>
        <polygon points="168,196 176,200 168,204" class="filled"></polygon>
        <line x1="156" y1="248" x2="168" y2="248" class="solid"></line>
        <polygon points="168,244 176,248 168,252" class="filled"></polygon>
        <line x1="156" y1="296" x2="168" y2="296" class="solid"></line>
        <polygon points="168,292 176,296 168,300" class="filled"></polygon>
        <line x1="156" y1="344" x2="168" y2="344" class="solid"></line>
        <polygon points="168,340 176,344 168,348" class="filled"></polygon>
        <path d="M 156,388 A 4,4 0,0,0 160,392" class="nofill"></path>
        <line x1="160" y1="392" x2="168" y2="392" class="solid"></line>
        <polygon points="168,388 176,392 168,396" class="filled"></polygon>
        <path d="M 192,88 A 4,4 0,0,0 188,92" class="nofill"></path>
        <line x1="188" y1="92" x2="188" y2="116" class="solid"></line>
        <line x1="192" y1="88" x2="304" y2="88" class="solid"></line>
        <path d="M 304,88 A 4,4 0,0,1 308,92" class="nofill"></path>
        <line x1="308" y1="92" x2="308" y2="116" class="solid"></line>
        <line x1="176" y1="104" x2="188" y2="104" class="solid"></line>
        <line x1="308" y1="104" x2="400" y2="104" class="solid"></line>
        <polygon points="400,100 408,104 400,108" class="filled"></polygon>
        <path d="M 188,116 A 4,4 0,0,0 192,120" class="nofill"></path>
        <line x1="192" y1="120" x2="304" y2="120" class="solid"></line>
        <path d="M 308,116 A 4,4 0,0,1 304,120" class="nofill"></path>
        <path d="M 432,88 A 8,8 0,0,0 426,92" class="nofill"></path>
        <line x1="426" y1="92" x2="414" y2="116" class="solid"></line>
        <line x1="432" y1="88" x2="512" y2="88" class="solid"></line>
        <path d="M 512,88 A 3,3 0,0,1 514,92" class="nofill"></path>
        <line x1="514" y1="92" x2="502" y2="116" class="solid"></line>
        <line x1="408" y1="104" x2="420" y2="104" class="solid"></line>
        <line x1="508" y1="104" x2="536" y2="104" class="solid"></line>
        <polygon points="536,100 544,104 536,108" class="filled"></polygon>
        <line x1="544" y1="104" x2="556" y2="104" class="solid"></line>
        <path d="M 414,116 A 3,3 0,0,0 416,120" class="nofill"></path>
        <line x1="416" y1="120" x2="496" y2="120" class="solid"></line>
        <path d="M 502,116 A 8,8 0,0,1 496,120" class="nofill"></path>
        <path d="M 192,136 A 4,4 0,0,0 188,140" class="nofill"></path>
        <line x1="188" y1="140" x2="188" y2="164" class="solid"></line>
        <line x1="192" y1="136" x2="304" y2="136" class="solid"></line>
        <path d="M 304,136 A 4,4 0,0,1 308,140" class="nofill"></path>
        <line x1="308" y1="140" x2="308" y2="164" class="solid"></line>
        <line x1="176" y1="152" x2="188" y2="152" class="solid"></line>
        <line x1="308" y1="152" x2="400" y2="152" class="solid"></line>
        <polygon points="400,148 408,152 400,156" class="filled"></polygon>
        <path d="M 188,164 A 4,4 0,0,0 192,168" class="nofill"></path>
        <line x1="192" y1="168" x2="304" y2="168" class="solid"></line>
        <path d="M 308,164 A 4,4 0,0,1 304,168" class="nofill"></path>
        <path d="M 432,136 A 8,8 0,0,0 426,140" class="nofill"></path>
        <line x1="426" y1="140" x2="414" y2="164" class="solid"></line>
        <line x1="432" y1="136" x2="512" y2="136" class="solid"></line>
        <path d="M 512,136 A 3,3 0,0,1 514,140" class="nofill"></path>
        <line x1="514" y1="140" x2="502" y2="164" class="solid"></line>
        <line x1="408" y1="152" x2="420" y2="152" class="solid"></line>
        <line x1="508" y1="152" x2="536" y2="152" class="solid"></line>
        <polygon points="536,148 544,152 536,156" class="filled"></polygon>
        <line x1="544" y1="152" x2="556" y2="152" class="solid"></line>
        <path d="M 414,164 A 3,3 0,0,0 416,168" class="nofill"></path>
        <line x1="416" y1="168" x2="496" y2="168" class="solid"></line>
        <path d="M 502,164 A 8,8 0,0,1 496,168" class="nofill"></path>
        <path d="M 192,184 A 4,4 0,0,0 188,188" class="nofill"></path>
        <line x1="188" y1="188" x2="188" y2="212" class="solid"></line>
        <line x1="192" y1="184" x2="304" y2="184" class="solid"></line>
        <path d="M 304,184 A 4,4 0,0,1 308,188" class="nofill"></path>
        <line x1="308" y1="188" x2="308" y2="212" class="solid"></line>
        <line x1="176" y1="200" x2="188" y2="200" class="solid"></line>
        <line x1="308" y1="200" x2="400" y2="200" class="solid"></line>
        <polygon points="400,196 408,200 400,204" class="filled"></polygon>
        <path d="M 188,212 A 4,4 0,0,0 192,216" class="nofill"></path>
        <line x1="192" y1="216" x2="304" y2="216" class="solid"></line>
        <path d="M 308,212 A 4,4 0,0,1 304,216" class="nofill"></path>
        <path d="M 432,184 A 8,8 0,0,0 426,188" class="nofill"></path>
        <line x1="426" y1="188" x2="414" y2="212" class="solid"></line>
        <line x1="432" y1="184" x2="512" y2="184" class="solid"></line>
        <path d="M 512,184 A 3,3 0,0,1 514,188" class="nofill"></path>
        <line x1="514" y1="188" x2="502" y2="212" class="solid"></line>
        <line x1="408" y1="200" x2="420" y2="200" class="solid"></line>
        <line x1="508" y1="200" x2="536" y2="200" class="solid"></line>
        <polygon points="536,196 544,200 536,204" class="filled"></polygon>
        <line x1="544" y1="200" x2="556" y2="200" class="solid"></line>
        <path d="M 414,212 A 3,3 0,0,0 416,216" class="nofill"></path>
        <line x1="416" y1="216" x2="496" y2="216" class="solid"></line>
        <path d="M 502,212 A 8,8 0,0,1 496,216" class="nofill"></path>
        <path d="M 192,232 A 4,4 0,0,0 188,236" class="nofill"></path>
        <line x1="188" y1="236" x2="188" y2="260" class="solid"></line>
        <line x1="192" y1="232" x2="328" y2="232" class="solid"></line>
        <path d="M 328,232 A 4,4 0,0,1 332,236" class="nofill"></path>
        <line x1="332" y1="236" x2="332" y2="260" class="solid"></line>
        <line x1="176" y1="248" x2="188" y2="248" class="solid"></line>
        <line x1="332" y1="248" x2="392" y2="248" class="solid"></line>
        <polygon points="392,244 400,248 392,252" class="filled"></polygon>
        <path d="M 188,260 A 4,4 0,0,0 192,264" class="nofill"></path>
        <line x1="192" y1="264" x2="328" y2="264" class="solid"></line>
        <path d="M 332,260 A 4,4 0,0,1 328,264" class="nofill"></path>
        <path d="M 424,232 A 8,8 0,0,0 418,236" class="nofill"></path>
        <line x1="418" y1="236" x2="406" y2="260" class="solid"></line>
        <line x1="424" y1="232" x2="504" y2="232" class="solid"></line>
        <path d="M 504,232 A 3,3 0,0,1 506,236" class="nofill"></path>
        <line x1="506" y1="236" x2="494" y2="260" class="solid"></line>
        <line x1="400" y1="248" x2="412" y2="248" class="solid"></line>
        <line x1="500" y1="248" x2="536" y2="248" class="solid"></line>
        <polygon points="536,244 544,248 536,252" class="filled"></polygon>
        <line x1="544" y1="248" x2="556" y2="248" class="solid"></line>
        <path d="M 406,260 A 3,3 0,0,0 408,264" class="nofill"></path>
        <line x1="408" y1="264" x2="488" y2="264" class="solid"></line>
        <path d="M 494,260 A 8,8 0,0,1 488,264" class="nofill"></path>
        <path d="M 192,280 A 4,4 0,0,0 188,284" class="nofill"></path>
        <line x1="188" y1="284" x2="188" y2="308" class="solid"></line>
        <line x1="192" y1="280" x2="256" y2="280" class="solid"></line>
        <path d="M 256,280 A 4,4 0,0,1 260,284" class="nofill"></path>
        <line x1="260" y1="284" x2="260" y2="308" class="solid"></line>
        <line x1="176" y1="296" x2="188" y2="296" class="solid"></line>
        <line x1="260" y1="296" x2="392" y2="296" class="solid"></line>
        <polygon points="392,292 400,296 392,300" class="filled"></polygon>
        <path d="M 188,308 A 4,4 0,0,0 192,312" class="nofill"></path>
        <line x1="192" y1="312" x2="256" y2="312" class="solid"></line>
        <path d="M 260,308 A 4,4 0,0,1 256,312" class="nofill"></path>
        <path d="M 424,280 A 8,8 0,0,0 418,284" class="nofill"></path>
        <line x1="418" y1="284" x2="406" y2="308" class="solid"></line>
        <line x1="424" y1="280" x2="504" y2="280" class="solid"></line>
        <path d="M 504,280 A 3,3 0,0,1 506,284" class="nofill"></path>
        <line x1="506" y1="284" x2="494" y2="308" class="solid"></line>
        <line x1="400" y1="296" x2="412" y2="296" class="solid"></line>
        <line x1="500" y1="296" x2="536" y2="296" class="solid"></line>
        <polygon points="536,292 544,296 536,300" class="filled"></polygon>
        <line x1="544" y1="296" x2="556" y2="296" class="solid"></line>
        <path d="M 406,308 A 3,3 0,0,0 408,312" class="nofill"></path>
        <line x1="408" y1="312" x2="488" y2="312" class="solid"></line>
        <path d="M 494,308 A 8,8 0,0,1 488,312" class="nofill"></path>
        <path d="M 192,328 A 4,4 0,0,0 188,332" class="nofill"></path>
        <line x1="188" y1="332" x2="188" y2="356" class="solid"></line>
        <line x1="192" y1="328" x2="296" y2="328" class="solid"></line>
        <path d="M 296,328 A 4,4 0,0,1 300,332" class="nofill"></path>
        <line x1="300" y1="332" x2="300" y2="356" class="solid"></line>
        <line x1="176" y1="344" x2="188" y2="344" class="solid"></line>
        <line x1="300" y1="344" x2="392" y2="344" class="solid"></line>
        <polygon points="392,340 400,344 392,348" class="filled"></polygon>
        <path d="M 188,356 A 4,4 0,0,0 192,360" class="nofill"></path>
        <line x1="192" y1="360" x2="296" y2="360" class="solid"></line>
        <path d="M 300,356 A 4,4 0,0,1 296,360" class="nofill"></path>
        <path d="M 424,328 A 8,8 0,0,0 418,332" class="nofill"></path>
        <line x1="418" y1="332" x2="406" y2="356" class="solid"></line>
        <line x1="424" y1="328" x2="496" y2="328" class="solid"></line>
        <path d="M 496,328 A 3,3 0,0,1 498,332" class="nofill"></path>
        <line x1="498" y1="332" x2="486" y2="356" class="solid"></line>
        <line x1="400" y1="344" x2="412" y2="344" class="solid"></line>
        <line x1="492" y1="344" x2="536" y2="344" class="solid"></line>
        <polygon points="536,340 544,344 536,348" class="filled"></polygon>
        <line x1="544" y1="344" x2="556" y2="344" class="solid"></line>
        <path d="M 406,356 A 3,3 0,0,0 408,360" class="nofill"></path>
        <line x1="408" y1="360" x2="480" y2="360" class="solid"></line>
        <path d="M 486,356 A 8,8 0,0,1 480,360" class="nofill"></path>
        <path d="M 192,376 A 4,4 0,0,0 188,380" class="nofill"></path>
        <line x1="188" y1="380" x2="188" y2="404" class="solid"></line>
        <line x1="192" y1="376" x2="256" y2="376" class="solid"></line>
        <path d="M 256,376 A 4,4 0,0,1 260,380" class="nofill"></path>
        <line x1="260" y1="380" x2="260" y2="404" class="solid"></line>
        <line x1="176" y1="392" x2="188" y2="392" class="solid"></line>
        <line x1="260" y1="392" x2="536" y2="392" class="solid"></line>
        <polygon points="536,388 544,392 536,396" class="filled"></polygon>
        <line x1="544" y1="392" x2="552" y2="392" class="solid"></line>
        <path d="M 556,388 A 4,4 0,0,1 552,392" class="nofill"></path>
        <path d="M 188,404 A 4,4 0,0,0 192,408" class="nofill"></path>
        <line x1="192" y1="408" x2="256" y2="408" class="solid"></line>
        <path d="M 260,404 A 4,4 0,0,1 256,408" class="nofill"></path>
        <line x1="556" y1="60" x2="556" y2="388" class="solid"></line>
    </g>
</svg>