<svg xmlns="http://www.w3.org/2000/svg" width="904" height="400">
    <style>
        line, path, circle, rect, polygon{stroke:black;stroke-width:1;stroke-opacity:1;fill-opacity:1;stroke-linecap:round;stroke-linejoin:miter;}text{font-family:Monospace;font-size:14px;}rect.backdrop{stroke:none;fill:white;}.broken{stroke-dasharray:8;}.filled{fill:black;}.bg_filled{fill:white;}.nofill{fill:white;}.end_marked_arrow{marker-end:url(#arrow);}.start_marked_arrow{marker-start:url(#arrow);}.end_marked_diamond{marker-end:url(#diamond);}.start_marked_diamond{marker-start:url(#diamond);}.end_marked_circle{marker-end:url(#circle);}.start_marked_circle{marker-start:url(#circle);}.end_marked_open_circle{marker-end:url(#open_circle);}.start_marked_open_circle{marker-start:url(#open_circle);}.end_marked_big_open_circle{marker-end:url(#big_open_circle);}.start_marked_big_open_circle{marker-start:url(#big_open_circle);}
        <!--separator-->
        
    </style>
    <defs>
        <marker id="arrow" viewBox="-2 -2 8 8" refX="4" refY="2" markerWidth="7" markerHeight="7" orient="auto-start-reverse">
            <polygon points="0,0 0,4 4,2 0,0"></polygon>
        </marker>
        <marker id="diamond" viewBox="-2 -2 8 8" refX="4" refY="2" markerWidth="7" markerHeight="7" orient="auto-start-reverse">
            <polygon points="0,2 2,0 4,2 2,4 0,2"></polygon>
        </marker>
        <marker id="circle" viewBox="0 0 8 8" refX="4" refY="4" markerWidth="7" markerHeight="7" orient="auto-start-reverse">
            <circle cx="4" cy="4" r="2" class="filled"></circle>
        </marker>
        <marker id="open_circle" viewBox="0 0 8 8" refX="4" refY="4" markerWidth="7" markerHeight="7" orient="auto-start-reverse">
            <circle cx="4" cy="4" r="2" class="bg_filled"></circle>
        </marker>
        <marker id="big_open_circle" viewBox="0 0 8 8" refX="4" refY="4" markerWidth="7" markerHeight="7" orient="auto-start-reverse">
            <circle cx="4" cy="4" r="3" class="bg_filled"></circle>
        </marker>
    </defs>
    <rect class="backdrop" x="0" y="0" width="904" height="400"></rect>
    <text x="18" y="60" >SAVE</text>
    <line x1="48" y1="64" x2="56" y2="64" class="solid"></line>
    <text x="58" y="60" >3MF</text>
    <line x1="80" y1="64" x2="88" y2="64" class="solid"></line>
    <text x="90" y="60" >MODEL</text>
    <circle cx="172" cy="56" r="4" class="nofill"></circle>
    <text x="218" y="60" >:MF</text>
    <line x1="240" y1="64" x2="248" y2="64" class="solid"></line>
    <text x="250" y="60" >FILE</text>
    <text x="442" y="60" >file</text>
    <circle cx="548" cy="56" r="4" class="nofill"></circle>
    <text x="594" y="60" >COMPLETE</text>
    <text x="218" y="108" >:LIGHTWEIGHT</text>
    <text x="442" y="108" >:ON</text>
    <line x1="472" y1="96" x2="464" y2="112" class="solid"></line>
    <text x="474" y="108" >:OFF</text>
    <text x="218" y="156" >:PLANE</text>
    <line x1="264" y1="160" x2="272" y2="160" class="solid"></line>
    <text x="274" y="156" >RECONSTRUCTION</text>
    <text x="474" y="156" >:OFF</text>
    <text x="474" y="204" >:ON</text>
    <circle cx="548" cy="200" r="4" class="nofill"></circle>
    <text x="546" y="268" >:CYLINDER</text>
    <line x1="616" y1="272" x2="624" y2="272" class="solid"></line>
    <text x="626" y="268" >RECONSTRUCTION</text>
    <text x="794" y="268" >:ON</text>
    <line x1="824" y1="256" x2="816" y2="272" class="solid"></line>
    <text x="826" y="268" >:OFF</text>
    <text x="546" y="316" >:RESOLUTION</text>
    <text x="794" y="316" >number</text>
    <text x="546" y="364" >:ANGLE</text>
    <text x="794" y="364" >angle</text>
    <g>
        <path d="M 176,8 A 4,4 0,0,0 172,12" class="nofill"></path>
        <line x1="172" y1="12" x2="172" y2="52" class="solid"></line>
        <line x1="176" y1="8" x2="184" y2="8" class="solid"></line>
        <polygon points="192,4 184,8 192,12" class="filled"></polygon>
        <line x1="192" y1="8" x2="344" y2="8" class="solid"></line>
        <polygon points="352,4 344,8 352,12" class="filled"></polygon>
        <line x1="352" y1="8" x2="528" y2="8" class="solid"></line>
        <polygon points="536,4 528,8 536,12" class="filled"></polygon>
        <line x1="536" y1="8" x2="544" y2="8" class="solid"></line>
        <path d="M 544,8 A 4,4 0,0,1 548,12" class="nofill"></path>
        <line x1="548" y1="12" x2="548" y2="52" class="solid"></line>
    </g>
    <g>
        <line x1="4" y1="40" x2="140" y2="40" class="solid"></line>
        <line x1="4" y1="40" x2="4" y2="72" class="solid"></line>
        <line x1="140" y1="40" x2="140" y2="72" class="solid"></line>
        <line x1="140" y1="56" x2="152" y2="56" class="solid"></line>
        <polygon points="152,52 160,56 152,60" class="filled"></polygon>
        <line x1="160" y1="56" x2="168" y2="56" class="solid"></line>
        <line x1="4" y1="72" x2="140" y2="72" class="solid"></line>
    </g>
    <g>
        <path d="M 208,40 A 4,4 0,0,0 204,44" class="nofill"></path>
        <line x1="204" y1="44" x2="204" y2="68" class="solid"></line>
        <line x1="208" y1="40" x2="288" y2="40" class="solid"></line>
        <path d="M 288,40 A 4,4 0,0,1 292,44" class="nofill"></path>
        <line x1="292" y1="44" x2="292" y2="68" class="solid"></line>
        <line x1="292" y1="56" x2="408" y2="56" class="solid"></line>
        <polygon points="408,52 416,56 408,60" class="filled"></polygon>
        <path d="M 204,68 A 4,4 0,0,0 208,72" class="nofill"></path>
        <line x1="208" y1="72" x2="288" y2="72" class="solid"></line>
        <path d="M 292,68 A 4,4 0,0,1 288,72" class="nofill"></path>
        <path d="M 440,40 A 8,8 0,0,0 434,44" class="nofill"></path>
        <line x1="434" y1="44" x2="422" y2="68" class="solid"></line>
        <line x1="440" y1="40" x2="488" y2="40" class="solid"></line>
        <path d="M 488,40 A 3,3 0,0,1 490,44" class="nofill"></path>
        <line x1="490" y1="44" x2="478" y2="68" class="solid"></line>
        <line x1="416" y1="56" x2="428" y2="56" class="solid"></line>
        <line x1="484" y1="56" x2="528" y2="56" class="solid"></line>
        <polygon points="528,52 536,56 528,60" class="filled"></polygon>
        <line x1="536" y1="56" x2="544" y2="56" class="solid"></line>
        <path d="M 422,68 A 3,3 0,0,0 424,72" class="nofill"></path>
        <line x1="424" y1="72" x2="472" y2="72" class="solid"></line>
        <path d="M 478,68 A 8,8 0,0,1 472,72" class="nofill"></path>
        <line x1="176" y1="56" x2="184" y2="56" class="solid"></line>
        <polygon points="184,52 192,56 184,60" class="filled"></polygon>
        <line x1="192" y1="56" x2="204" y2="56" class="solid"></line>
    </g>
    <g>
        <line x1="580" y1="40" x2="668" y2="40" class="solid"></line>
        <line x1="580" y1="40" x2="580" y2="72" class="solid"></line>
        <line x1="668" y1="40" x2="668" y2="72" class="solid"></line>
        <line x1="580" y1="72" x2="668" y2="72" class="solid"></line>
        <line x1="552" y1="56" x2="560" y2="56" class="solid"></line>
        <polygon points="560,52 568,56 560,60" class="filled"></polygon>
        <line x1="568" y1="56" x2="580" y2="56" class="solid"></line>
    </g>
    <g>
        <line x1="172" y1="60" x2="172" y2="148" class="solid"></line>
        <line x1="172" y1="104" x2="184" y2="104" class="solid"></line>
        <polygon points="184,100 192,104 184,108" class="filled"></polygon>
        <path d="M 172,148 A 4,4 0,0,0 176,152" class="nofill"></path>
        <line x1="176" y1="152" x2="184" y2="152" class="solid"></line>
        <polygon points="184,148 192,152 184,156" class="filled"></polygon>
        <path d="M 208,88 A 4,4 0,0,0 204,92" class="nofill"></path>
        <line x1="204" y1="92" x2="204" y2="116" class="solid"></line>
        <line x1="208" y1="88" x2="320" y2="88" class="solid"></line>
        <path d="M 320,88 A 4,4 0,0,1 324,92" class="nofill"></path>
        <line x1="324" y1="92" x2="324" y2="116" class="solid"></line>
        <line x1="192" y1="104" x2="204" y2="104" class="solid"></line>
        <line x1="324" y1="104" x2="408" y2="104" class="solid"></line>
        <polygon points="408,100 416,104 408,108" class="filled"></polygon>
        <path d="M 204,116 A 4,4 0,0,0 208,120" class="nofill"></path>
        <line x1="208" y1="120" x2="320" y2="120" class="solid"></line>
        <path d="M 324,116 A 4,4 0,0,1 320,120" class="nofill"></path>
        <path d="M 440,88 A 8,8 0,0,0 434,92" class="nofill"></path>
        <line x1="434" y1="92" x2="422" y2="116" class="solid"></line>
        <line x1="440" y1="88" x2="520" y2="88" class="solid"></line>
        <path d="M 520,88 A 3,3 0,0,1 522,92" class="nofill"></path>
        <line x1="522" y1="92" x2="510" y2="116" class="solid"></line>
        <line x1="416" y1="104" x2="428" y2="104" class="solid"></line>
        <line x1="516" y1="104" x2="528" y2="104" class="solid"></line>
        <polygon points="528,100 536,104 528,108" class="filled"></polygon>
        <line x1="536" y1="104" x2="548" y2="104" class="solid"></line>
        <path d="M 422,116 A 3,3 0,0,0 424,120" class="nofill"></path>
        <line x1="424" y1="120" x2="504" y2="120" class="solid"></line>
        <path d="M 510,116 A 8,8 0,0,1 504,120" class="nofill"></path>
        <path d="M 208,136 A 4,4 0,0,0 204,140" class="nofill"></path>
        <line x1="204" y1="140" x2="204" y2="164" class="solid"></line>
        <line x1="208" y1="136" x2="392" y2="136" class="solid"></line>
        <path d="M 392,136 A 4,4 0,0,1 396,140" class="nofill"></path>
        <line x1="396" y1="140" x2="396" y2="164" class="solid"></line>
        <line x1="192" y1="152" x2="204" y2="152" class="solid"></line>
        <line x1="396" y1="152" x2="440" y2="152" class="solid"></line>
        <line x1="428" y1="152" x2="428" y2="200" class="solid"></line>
        <polygon points="440,148 448,152 440,156" class="filled"></polygon>
        <path d="M 204,164 A 4,4 0,0,0 208,168" class="nofill"></path>
        <line x1="208" y1="168" x2="392" y2="168" class="solid"></line>
        <path d="M 396,164 A 4,4 0,0,1 392,168" class="nofill"></path>
        <line x1="428" y1="200" x2="440" y2="200" class="solid"></line>
        <polygon points="440,196 448,200 440,204" class="filled"></polygon>
        <path d="M 472,136 A 8,8 0,0,0 466,140" class="nofill"></path>
        <line x1="466" y1="140" x2="454" y2="164" class="solid"></line>
        <line x1="472" y1="136" x2="520" y2="136" class="solid"></line>
        <path d="M 520,136 A 3,3 0,0,1 522,140" class="nofill"></path>
        <line x1="522" y1="140" x2="510" y2="164" class="solid"></line>
        <line x1="448" y1="152" x2="460" y2="152" class="solid"></line>
        <line x1="516" y1="152" x2="528" y2="152" class="solid"></line>
        <polygon points="528,148 536,152 528,156" class="filled"></polygon>
        <line x1="536" y1="152" x2="548" y2="152" class="solid"></line>
        <path d="M 454,164 A 3,3 0,0,0 456,168" class="nofill"></path>
        <line x1="456" y1="168" x2="504" y2="168" class="solid"></line>
        <path d="M 510,164 A 8,8 0,0,1 504,168" class="nofill"></path>
        <path d="M 472,184 A 8,8 0,0,0 466,188" class="nofill"></path>
        <line x1="466" y1="188" x2="454" y2="212" class="solid"></line>
        <line x1="472" y1="184" x2="512" y2="184" class="solid"></line>
        <path d="M 512,184 A 3,3 0,0,1 514,188" class="nofill"></path>
        <line x1="514" y1="188" x2="502" y2="212" class="solid"></line>
        <line x1="448" y1="200" x2="460" y2="200" class="solid"></line>
        <line x1="508" y1="200" x2="528" y2="200" class="solid"></line>
        <polygon points="528,196 536,200 528,204" class="filled"></polygon>
        <line x1="536" y1="200" x2="544" y2="200" class="solid"></line>
        <path d="M 454,212 A 3,3 0,0,0 456,216" class="nofill"></path>
        <line x1="456" y1="216" x2="496" y2="216" class="solid"></line>
        <path d="M 502,212 A 8,8 0,0,1 496,216" class="nofill"></path>
        <line x1="548" y1="60" x2="548" y2="196" class="solid"></line>
    </g>
    <g>
        <line x1="548" y1="204" x2="548" y2="228" class="solid"></line>
        <path d="M 504,232 A 4,4 0,0,0 500,236" class="nofill"></path>
        <line x1="500" y1="236" x2="500" y2="356" class="solid"></line>
        <line x1="504" y1="232" x2="544" y2="232" class="solid"></line>
        <path d="M 548,228 A 4,4 0,0,1 544,232" class="nofill"></path>
        <line x1="500" y1="264" x2="512" y2="264" class="solid"></line>
        <polygon points="512,260 520,264 512,268" class="filled"></polygon>
        <path d="M 500,356 A 4,4 0,0,0 504,360" class="nofill"></path>
        <line x1="504" y1="360" x2="512" y2="360" class="solid"></line>
        <polygon points="512,356 520,360 512,364" class="filled"></polygon>
        <path d="M 536,248 A 4,4 0,0,0 532,252" class="nofill"></path>
        <line x1="532" y1="252" x2="532" y2="276" class="solid"></line>
        <line x1="536" y1="248" x2="744" y2="248" class="solid"></line>
        <path d="M 744,248 A 4,4 0,0,1 748,252" class="nofill"></path>
        <line x1="748" y1="252" x2="748" y2="276" class="solid"></line>
        <line x1="520" y1="264" x2="532" y2="264" class="solid"></line>
        <line x1="748" y1="264" x2="760" y2="264" class="solid"></line>
        <polygon points="760,260 768,264 760,268" class="filled"></polygon>
        <path d="M 532,276 A 4,4 0,0,0 536,280" class="nofill"></path>
        <line x1="536" y1="280" x2="744" y2="280" class="solid"></line>
        <path d="M 748,276 A 4,4 0,0,1 744,280" class="nofill"></path>
        <path d="M 792,248 A 8,8 0,0,0 786,252" class="nofill"></path>
        <line x1="786" y1="252" x2="774" y2="276" class="solid"></line>
        <line x1="792" y1="248" x2="864" y2="248" class="solid"></line>
        <path d="M 864,248 A 3,3 0,0,1 866,252" class="nofill"></path>
        <line x1="866" y1="252" x2="854" y2="276" class="solid"></line>
        <line x1="768" y1="264" x2="780" y2="264" class="solid"></line>
        <line x1="860" y1="264" x2="872" y2="264" class="solid"></line>
        <polygon points="872,260 880,264 872,268" class="filled"></polygon>
        <line x1="880" y1="264" x2="892" y2="264" class="solid"></line>
        <path d="M 774,276 A 3,3 0,0,0 776,280" class="nofill"></path>
        <line x1="776" y1="280" x2="848" y2="280" class="solid"></line>
        <path d="M 854,276 A 8,8 0,0,1 848,280" class="nofill"></path>
        <path d="M 536,344 A 4,4 0,0,0 532,348" class="nofill"></path>
        <line x1="532" y1="348" x2="532" y2="372" class="solid"></line>
        <line x1="536" y1="344" x2="608" y2="344" class="solid"></line>
        <path d="M 608,344 A 4,4 0,0,1 612,348" class="nofill"></path>
        <line x1="612" y1="348" x2="612" y2="372" class="solid"></line>
        <line x1="520" y1="360" x2="532" y2="360" class="solid"></line>
        <line x1="612" y1="360" x2="760" y2="360" class="solid"></line>
        <polygon points="760,356 768,360 760,364" class="filled"></polygon>
        <path d="M 532,372 A 4,4 0,0,0 536,376" class="nofill"></path>
        <line x1="536" y1="376" x2="608" y2="376" class="solid"></line>
        <path d="M 612,372 A 4,4 0,0,1 608,376" class="nofill"></path>
        <path d="M 792,344 A 8,8 0,0,0 786,348" class="nofill"></path>
        <line x1="786" y1="348" x2="774" y2="372" class="solid"></line>
        <line x1="792" y1="344" x2="840" y2="344" class="solid"></line>
        <path d="M 840,344 A 3,3 0,0,1 842,348" class="nofill"></path>
        <line x1="842" y1="348" x2="830" y2="372" class="solid"></line>
        <line x1="768" y1="360" x2="780" y2="360" class="solid"></line>
        <line x1="836" y1="360" x2="872" y2="360" class="solid"></line>
        <polygon points="872,356 880,360 872,364" class="filled"></polygon>
        <line x1="880" y1="360" x2="888" y2="360" class="solid"></line>
        <path d="M 892,356 A 4,4 0,0,1 888,360" class="nofill"></path>
        <path d="M 774,372 A 3,3 0,0,0 776,376" class="nofill"></path>
        <line x1="776" y1="376" x2="824" y2="376" class="solid"></line>
        <path d="M 830,372 A 8,8 0,0,1 824,376" class="nofill"></path>
        <line x1="552" y1="200" x2="560" y2="200" class="solid"></line>
        <polygon points="568,196 560,200 568,204" class="filled"></polygon>
        <line x1="568" y1="200" x2="888" y2="200" class="solid"></line>
        <path d="M 888,200 A 4,4 0,0,1 892,204" class="nofill"></path>
        <line x1="892" y1="204" x2="892" y2="356" class="solid"></line>
        <path d="M 792,296 A 8,8 0,0,0 786,300" class="nofill"></path>
        <line x1="786" y1="300" x2="774" y2="324" class="solid"></line>
        <line x1="792" y1="296" x2="848" y2="296" class="solid"></line>
        <path d="M 848,296 A 3,3 0,0,1 850,300" class="nofill"></path>
        <line x1="850" y1="300" x2="838" y2="324" class="solid"></line>
        <line x1="768" y1="312" x2="780" y2="312" class="solid"></line>
        <line x1="844" y1="312" x2="872" y2="312" class="solid"></line>
        <polygon points="872,308 880,312 872,316" class="filled"></polygon>
        <line x1="880" y1="312" x2="892" y2="312" class="solid"></line>
        <path d="M 774,324 A 3,3 0,0,0 776,328" class="nofill"></path>
        <line x1="776" y1="328" x2="832" y2="328" class="solid"></line>
        <path d="M 838,324 A 8,8 0,0,1 832,328" class="nofill"></path>
        <path d="M 536,296 A 4,4 0,0,0 532,300" class="nofill"></path>
        <line x1="532" y1="300" x2="532" y2="324" class="solid"></line>
        <line x1="536" y1="296" x2="640" y2="296" class="solid"></line>
        <path d="M 640,296 A 4,4 0,0,1 644,300" class="nofill"></path>
        <line x1="644" y1="300" x2="644" y2="324" class="solid"></line>
        <line x1="644" y1="312" x2="760" y2="312" class="solid"></line>
        <polygon points="760,308 768,312 760,316" class="filled"></polygon>
        <path d="M 532,324 A 4,4 0,0,0 536,328" class="nofill"></path>
        <line x1="536" y1="328" x2="640" y2="328" class="solid"></line>
        <path d="M 644,324 A 4,4 0,0,1 640,328" class="nofill"></path>
    </g>
</svg>