<svg xmlns="http://www.w3.org/2000/svg" width="592" height="224">
    <style>
        line, path, circle, rect, polygon{stroke:black;stroke-width:1;stroke-opacity:1;fill-opacity:1;stroke-linecap:round;stroke-linejoin:miter;}text{font-family:Monospace;font-size:14px;}rect.backdrop{stroke:none;fill:white;}.broken{stroke-dasharray:8;}.filled{fill:black;}.bg_filled{fill:white;}.nofill{fill:white;}.end_marked_arrow{marker-end:url(#arrow);}.start_marked_arrow{marker-start:url(#arrow);}.end_marked_diamond{marker-end:url(#diamond);}.start_marked_diamond{marker-start:url(#diamond);}.end_marked_circle{marker-end:url(#circle);}.start_marked_circle{marker-start:url(#circle);}.end_marked_open_circle{marker-end:url(#open_circle);}.start_marked_open_circle{marker-start:url(#open_circle);}.end_marked_big_open_circle{marker-end:url(#big_open_circle);}.start_marked_big_open_circle{marker-start:url(#big_open_circle);}
        <!--separator-->
        
    </style>
    <defs>
        <marker id="arrow" viewBox="-2 -2 8 8" refX="4" refY="2" markerWidth="7" markerHeight="7" orient="auto-start-reverse">
            <polygon points="0,0 0,4 4,2 0,0"></polygon>
        </marker>
        <marker id="diamond" viewBox="-2 -2 8 8" refX="4" refY="2" markerWidth="7" markerHeight="7" orient="auto-start-reverse">
            <polygon points="0,2 2,0 4,2 2,4 0,2"></polygon>
        </marker>
        <marker id="circle" viewBox="0 0 8 8" refX="4" refY="4" markerWidth="7" markerHeight="7" orient="auto-start-reverse">
            <circle cx="4" cy="4" r="2" class="filled"></circle>
        </marker>
        <marker id="open_circle" viewBox="0 0 8 8" refX="4" refY="4" markerWidth="7" markerHeight="7" orient="auto-start-reverse">
            <circle cx="4" cy="4" r="2" class="bg_filled"></circle>
        </marker>
        <marker id="big_open_circle" viewBox="0 0 8 8" refX="4" refY="4" markerWidth="7" markerHeight="7" orient="auto-start-reverse">
            <circle cx="4" cy="4" r="3" class="bg_filled"></circle>
        </marker>
    </defs>
    <rect class="backdrop" x="0" y="0" width="592" height="224"></rect>
    <text x="2" y="12" >20220328</text>
    <line x1="64" y1="16" x2="72" y2="16" class="solid"></line>
    <text x="74" y="12" >TEST</text>
    <line x1="104" y1="16" x2="112" y2="16" class="solid"></line>
    <text x="114" y="12" >08</text>
    <line x1="128" y1="16" x2="136" y2="16" class="solid"></line>
    <text x="138" y="12" >08A</text>
    <line x1="160" y1="16" x2="168" y2="16" class="solid"></line>
    <text x="170" y="12" >08L</text>
    <line x1="192" y1="16" x2="200" y2="16" class="solid"></line>
    <text x="202" y="12" >45</text>
    <text x="410" y="12" >Extraction</text>
    <text x="498" y="12" >Folder</text>
    <text x="74" y="44" >divest</text>
    <line x1="120" y1="48" x2="128" y2="48" class="solid"></line>
    <text x="130" y="44" >docs</text>
    <line x1="160" y1="48" x2="168" y2="48" class="solid"></line>
    <text x="170" y="44" >extract</text>
    <line x1="224" y1="48" x2="232" y2="48" class="solid"></line>
    <text x="234" y="44" >08</text>
    <line x1="248" y1="48" x2="256" y2="48" class="solid"></line>
    <text x="258" y="44" >08A</text>
    <line x1="280" y1="48" x2="288" y2="48" class="solid"></line>
    <text x="290" y="44" >08L</text>
    <line x1="312" y1="48" x2="320" y2="48" class="solid"></line>
    <text x="322" y="44" >45.csv</text>
    <text x="74" y="60" >files</text>
    <text x="410" y="44" >Master</text>
    <text x="466" y="44" >Extraction</text>
    <text x="554" y="44" >List</text>
    <text x="122" y="92" >Current</text>
    <text x="170" y="124" >2d</text>
    <text x="170" y="172" >3d</text>
    <text x="202" y="156" >...</text>
    <text x="410" y="156" >Drawings</text>
    <text x="202" y="204" >...</text>
    <text x="410" y="204" >Parts</text>
    <line x1="456" y1="192" x2="448" y2="208" class="solid"></line>
    <text x="458" y="204" >Assemblies</text>
    <g>
        <line x1="44" y1="16" x2="44" y2="52" class="solid"></line>
        <line x1="44" y1="40" x2="64" y2="40" class="solid"></line>
        <path d="M 44,52 A 4,4 0,0,0 48,56" class="nofill"></path>
        <line x1="48" y1="56" x2="64" y2="56" class="solid"></line>
    </g>
    <g>
        <polygon points="392,4 384,8 392,12" class="filled"></polygon>
        <line x1="392" y1="8" x2="400" y2="8" class="solid"></line>
    </g>
    <g>
        <line x1="92" y1="64" x2="92" y2="84" class="solid"></line>
        <path d="M 92,84 A 4,4 0,0,0 96,88" class="nofill"></path>
        <line x1="96" y1="88" x2="112" y2="88" class="solid"></line>
    </g>
    <g>
        <polygon points="392,36 384,40 392,44" class="filled"></polygon>
        <line x1="392" y1="40" x2="400" y2="40" class="solid"></line>
    </g>
    <g>
        <line x1="140" y1="96" x2="140" y2="164" class="solid"></line>
        <line x1="140" y1="120" x2="160" y2="120" class="solid"></line>
        <path d="M 140,164 A 4,4 0,0,0 144,168" class="nofill"></path>
        <line x1="144" y1="168" x2="160" y2="168" class="solid"></line>
    </g>
    <g>
        <line x1="172" y1="128" x2="172" y2="148" class="solid"></line>
        <path d="M 172,148 A 4,4 0,0,0 176,152" class="nofill"></path>
        <line x1="176" y1="152" x2="192" y2="152" class="solid"></line>
    </g>
    <g>
        <line x1="172" y1="176" x2="172" y2="196" class="solid"></line>
        <path d="M 172,196 A 4,4 0,0,0 176,200" class="nofill"></path>
        <line x1="176" y1="200" x2="192" y2="200" class="solid"></line>
    </g>
    <g>
        <polygon points="392,148 384,152 392,156" class="filled"></polygon>
        <line x1="392" y1="152" x2="400" y2="152" class="solid"></line>
    </g>
    <g>
        <polygon points="392,196 384,200 392,204" class="filled"></polygon>
        <line x1="392" y1="200" x2="400" y2="200" class="solid"></line>
    </g>
</svg>