<svg xmlns="http://www.w3.org/2000/svg" width="928" height="432">
    <style>
        line, path, circle, rect, polygon{stroke:black;stroke-width:1;stroke-opacity:1;fill-opacity:1;stroke-linecap:round;stroke-linejoin:miter;}text{font-family:Monospace;font-size:14px;}rect.backdrop{stroke:none;fill:white;}.broken{stroke-dasharray:8;}.filled{fill:black;}.bg_filled{fill:white;}.nofill{fill:white;}.end_marked_arrow{marker-end:url(#arrow);}.start_marked_arrow{marker-start:url(#arrow);}.end_marked_diamond{marker-end:url(#diamond);}.start_marked_diamond{marker-start:url(#diamond);}.end_marked_circle{marker-end:url(#circle);}.start_marked_circle{marker-start:url(#circle);}.end_marked_open_circle{marker-end:url(#open_circle);}.start_marked_open_circle{marker-start:url(#open_circle);}.end_marked_big_open_circle{marker-end:url(#big_open_circle);}.start_marked_big_open_circle{marker-start:url(#big_open_circle);}
        <!--separator-->
        
    </style>
    <defs>
        <marker id="arrow" viewBox="-2 -2 8 8" refX="4" refY="2" markerWidth="7" markerHeight="7" orient="auto-start-reverse">
            <polygon points="0,0 0,4 4,2 0,0"></polygon>
        </marker>
        <marker id="diamond" viewBox="-2 -2 8 8" refX="4" refY="2" markerWidth="7" markerHeight="7" orient="auto-start-reverse">
            <polygon points="0,2 2,0 4,2 2,4 0,2"></polygon>
        </marker>
        <marker id="circle" viewBox="0 0 8 8" refX="4" refY="4" markerWidth="7" markerHeight="7" orient="auto-start-reverse">
            <circle cx="4" cy="4" r="2" class="filled"></circle>
        </marker>
        <marker id="open_circle" viewBox="0 0 8 8" refX="4" refY="4" markerWidth="7" markerHeight="7" orient="auto-start-reverse">
            <circle cx="4" cy="4" r="2" class="bg_filled"></circle>
        </marker>
        <marker id="big_open_circle" viewBox="0 0 8 8" refX="4" refY="4" markerWidth="7" markerHeight="7" orient="auto-start-reverse">
            <circle cx="4" cy="4" r="3" class="bg_filled"></circle>
        </marker>
    </defs>
    <rect class="backdrop" x="0" y="0" width="928" height="432"></rect>
    <rect x="476" y="40" width="440" height="96" class="solid nofill" rx="0"></rect>
    <text x="570" y="60" >Stage</text>
    <text x="618" y="60" >2</text>
    <path d="M 640,48 A 16,16 0,0,0 640,64" class="nofill"></path>
    <text x="642" y="60" >Connected</text>
    <text x="722" y="60" >to</text>
    <text x="746" y="60" >MM</text>
    <path d="M 760,48 A 16,16 0,0,1 760,64" class="nofill"></path>
    <text x="506" y="92" >Rule</text>
    <text x="546" y="92" >based</text>
    <text x="594" y="92" >automated</text>
    <text x="738" y="92" >Interactive</text>
    <text x="506" y="108" >MM</text>
    <text x="530" y="108" >check</text>
    <line x1="568" y1="104" x2="576" y2="104" class="solid"></line>
    <text x="578" y="108" >in</text>
    <text x="738" y="108" >Conflict</text>
    <text x="810" y="108" >Resolution</text>
    <line x1="744" y1="120" x2="824" y2="120" class="solid"></line>
    <text x="2" y="12" >Migration</text>
    <text x="82" y="12" >Process</text>
    <text x="146" y="12" >Diagramm</text>
    <text x="2" y="28" >...........................</text>
    <text x="98" y="60" >Stage</text>
    <text x="146" y="60" >1</text>
    <path d="M 168,48 A 16,16 0,0,0 168,64" class="nofill"></path>
    <text x="170" y="60" >not</text>
    <text x="202" y="60" >connected</text>
    <text x="282" y="60" >to</text>
    <text x="306" y="60" >MM</text>
    <path d="M 320,48 A 16,16 0,0,1 320,64" class="nofill"></path>
    <text x="34" y="92" >Automated</text>
    <text x="114" y="92" >Model</text>
    <text x="162" y="92" >Scan</text>
    <text x="266" y="92" >Interactive</text>
    <text x="34" y="108" >and</text>
    <text x="66" y="108" >Conflict</text>
    <text x="138" y="108" >Resolution</text>
    <text x="266" y="108" >Error</text>
    <text x="314" y="108" >Resolution</text>
    <line x1="56" y1="184" x2="80" y2="184" class="solid"></line>
    <text x="82" y="188" >.</text>
    <line x1="88" y1="184" x2="144" y2="184" class="solid"></line>
    <text x="42" y="204" >Input</text>
    <text x="90" y="204" >Directory</text>
    <text x="394" y="204" >Staging</text>
    <text x="458" y="204" >Directory</text>
    <text x="794" y="204" >Model</text>
    <text x="842" y="204" >Manager</text>
    <text x="66" y="300" >2d</text>
    <text x="138" y="300" >3d</text>
    <text x="426" y="300" >2d</text>
    <text x="498" y="300" >3d</text>
    <text x="466" y="364" >log</text>
    <rect x="792" y="244" width="8" height="8" class="solid filled" rx="0"></rect>
    <circle cx="820" cy="264" r="4" class="nofill"></circle>
    <circle cx="844" cy="296" r="4" class="nofill"></circle>
    <circle cx="844" cy="312" r="4" class="nofill"></circle>
    <g>
        <line x1="4" y1="32" x2="4" y2="136" class="solid"></line>
        <line x1="4" y1="40" x2="444" y2="40" class="solid"></line>
        <line x1="444" y1="40" x2="444" y2="136" class="solid"></line>
        <line x1="4" y1="136" x2="444" y2="136" class="solid"></line>
    </g>
    <g>
        <path d="M 24,72 A 4,4 0,0,0 20,76" class="nofill"></path>
        <line x1="20" y1="76" x2="20" y2="116" class="solid"></line>
        <line x1="24" y1="72" x2="224" y2="72" class="solid"></line>
        <path d="M 224,72 A 4,4 0,0,1 228,76" class="nofill"></path>
        <line x1="228" y1="76" x2="228" y2="116" class="solid"></line>
        <path d="M 20,116 A 4,4 0,0,0 24,120" class="nofill"></path>
        <line x1="24" y1="120" x2="48" y2="120" class="solid"></line>
        <line x1="56" y1="120" x2="208" y2="120" class="solid"></line>
        <path d="M 208,120 A 4,4 0,0,1 212,124" class="nofill"></path>
        <path d="M 216,120 A 4,4 0,0,0 212,124" class="nofill"></path>
        <line x1="212" y1="124" x2="212" y2="196" class="solid"></line>
        <line x1="216" y1="120" x2="224" y2="120" class="solid"></line>
        <path d="M 228,116 A 4,4 0,0,1 224,120" class="nofill"></path>
        <path d="M 212,196 A 4,4 0,0,0 216,200" class="nofill"></path>
        <line x1="216" y1="200" x2="368" y2="200" class="solid"></line>
        <polygon points="368,196 376,200 368,204" class="filled"></polygon>
    </g>
    <g>
        <path d="M 256,72 A 4,4 0,0,0 252,76" class="nofill"></path>
        <line x1="252" y1="76" x2="252" y2="116" class="solid"></line>
        <line x1="256" y1="72" x2="424" y2="72" class="solid"></line>
        <path d="M 424,72 A 4,4 0,0,1 428,76" class="nofill"></path>
        <line x1="428" y1="76" x2="428" y2="116" class="solid"></line>
        <path d="M 252,116 A 4,4 0,0,0 256,120" class="nofill"></path>
        <line x1="256" y1="120" x2="264" y2="120" class="solid"></line>
        <path d="M 264,120 A 4,4 0,0,1 268,124" class="nofill"></path>
        <path d="M 272,120 A 4,4 0,0,0 268,124" class="nofill"></path>
        <line x1="268" y1="124" x2="268" y2="148" class="solid"></line>
        <line x1="272" y1="120" x2="424" y2="120" class="solid"></line>
        <path d="M 428,116 A 4,4 0,0,1 424,120" class="nofill"></path>
        <path d="M 152,152 A 4,4 0,0,0 148,156" class="nofill"></path>
        <line x1="148" y1="156" x2="148" y2="180" class="solid"></line>
        <line x1="152" y1="152" x2="264" y2="152" class="solid"></line>
        <path d="M 268,148 A 4,4 0,0,1 264,152" class="nofill"></path>
        <polygon points="144,180 152,180 148,192" class="filled"></polygon>
    </g>
    <g>
        <path d="M 496,72 A 4,4 0,0,0 492,76" class="nofill"></path>
        <line x1="492" y1="76" x2="492" y2="116" class="solid"></line>
        <line x1="496" y1="72" x2="696" y2="72" class="solid"></line>
        <path d="M 696,72 A 4,4 0,0,1 700,76" class="nofill"></path>
        <line x1="700" y1="76" x2="700" y2="116" class="solid"></line>
        <path d="M 492,116 A 4,4 0,0,0 496,120" class="nofill"></path>
        <line x1="496" y1="120" x2="504" y2="120" class="solid"></line>
        <line x1="512" y1="120" x2="696" y2="120" class="solid"></line>
        <path d="M 700,116 A 4,4 0,0,1 696,120" class="nofill"></path>
    </g>
    <g>
        <path d="M 728,72 A 4,4 0,0,0 724,76" class="nofill"></path>
        <line x1="724" y1="76" x2="724" y2="116" class="solid"></line>
        <line x1="728" y1="72" x2="896" y2="72" class="solid"></line>
        <path d="M 896,72 A 4,4 0,0,1 900,76" class="nofill"></path>
        <line x1="900" y1="76" x2="900" y2="116" class="solid"></line>
        <path d="M 724,116 A 4,4 0,0,0 728,120" class="nofill"></path>
        <line x1="728" y1="120" x2="736" y2="120" class="solid"></line>
        <line x1="832" y1="120" x2="896" y2="120" class="solid"></line>
        <path d="M 900,116 A 4,4 0,0,1 896,120" class="nofill"></path>
    </g>
    <g>
        <polygon points="48,124 52,112 56,124" class="filled"></polygon>
        <line x1="52" y1="124" x2="52" y2="180" class="solid"></line>
        <polygon points="48,180 56,180 52,192" class="filled"></polygon>
    </g>
    <g>
        <polygon points="504,124 508,112 512,124" class="filled"></polygon>
        <line x1="508" y1="124" x2="508" y2="180" class="solid"></line>
        <polygon points="504,180 512,180 508,192" class="filled"></polygon>
    </g>
    <g>
        <polygon points="736,124 740,112 744,124" class="filled"></polygon>
        <line x1="740" y1="124" x2="740" y2="196" class="solid"></line>
        <polygon points="552,196 544,200 552,204" class="filled"></polygon>
        <line x1="552" y1="200" x2="736" y2="200" class="solid"></line>
        <path d="M 740,196 A 4,4 0,0,1 736,200" class="nofill"></path>
    </g>
    <g>
        <polygon points="824,124 828,112 832,124" class="filled"></polygon>
        <line x1="828" y1="124" x2="828" y2="180" class="solid"></line>
        <polygon points="824,180 832,180 828,192" class="filled"></polygon>
    </g>
    <g>
        <path d="M 32,184 A 8,8 0,0,0 26,188" class="nofill"></path>
        <line x1="26" y1="188" x2="24" y2="192" class="solid"></line>
        <line x1="32" y1="184" x2="48" y2="184" class="solid"></line>
        <path d="M 24,192 A 16,16 0,0,0 24,208" class="nofill"></path>
        <line x1="24" y1="208" x2="20" y2="216" class="solid"></line>
        <line x1="20" y1="216" x2="20" y2="324" class="solid"></line>
        <line x1="24" y1="208" x2="26" y2="212" class="solid"></line>
        <path d="M 26,212 A 8,8 0,0,0 32,216" class="nofill"></path>
        <line x1="32" y1="216" x2="168" y2="216" class="solid"></line>
        <path d="M 20,324 A 4,4 0,0,0 24,328" class="nofill"></path>
        <line x1="24" y1="328" x2="176" y2="328" class="solid"></line>
        <line x1="152" y1="184" x2="168" y2="184" class="solid"></line>
        <path d="M 168,184 A 8,8 0,0,1 174,188" class="nofill"></path>
        <line x1="174" y1="188" x2="176" y2="192" class="solid"></line>
        <path d="M 176,192 A 16,16 0,0,1 176,208" class="nofill"></path>
        <line x1="176" y1="208" x2="174" y2="212" class="solid"></line>
        <path d="M 174,212 A 8,8 0,0,1 168,216" class="nofill"></path>
        <line x1="176" y1="208" x2="180" y2="216" class="solid"></line>
        <line x1="180" y1="216" x2="180" y2="324" class="solid"></line>
        <path d="M 180,324 A 4,4 0,0,1 176,328" class="nofill"></path>
    </g>
    <g>
        <path d="M 392,184 A 8,8 0,0,0 386,188" class="nofill"></path>
        <line x1="386" y1="188" x2="384" y2="192" class="solid"></line>
        <line x1="392" y1="184" x2="504" y2="184" class="solid"></line>
        <path d="M 384,192 A 16,16 0,0,0 384,208" class="nofill"></path>
        <line x1="384" y1="208" x2="380" y2="216" class="solid"></line>
        <line x1="380" y1="216" x2="380" y2="404" class="solid"></line>
        <line x1="384" y1="208" x2="386" y2="212" class="solid"></line>
        <path d="M 386,212 A 8,8 0,0,0 392,216" class="nofill"></path>
        <line x1="392" y1="216" x2="528" y2="216" class="solid"></line>
        <path d="M 380,404 A 4,4 0,0,0 384,408" class="nofill"></path>
        <line x1="384" y1="408" x2="536" y2="408" class="solid"></line>
        <line x1="512" y1="184" x2="528" y2="184" class="solid"></line>
        <path d="M 528,184 A 8,8 0,0,1 534,188" class="nofill"></path>
        <line x1="534" y1="188" x2="536" y2="192" class="solid"></line>
        <path d="M 536,192 A 16,16 0,0,1 536,208" class="nofill"></path>
        <line x1="536" y1="208" x2="534" y2="212" class="solid"></line>
        <path d="M 534,212 A 8,8 0,0,1 528,216" class="nofill"></path>
        <line x1="536" y1="208" x2="540" y2="216" class="solid"></line>
        <line x1="540" y1="216" x2="540" y2="404" class="solid"></line>
        <path d="M 540,404 A 4,4 0,0,1 536,408" class="nofill"></path>
    </g>
    <g>
        <path d="M 792,184 A 8,8 0,0,0 786,188" class="nofill"></path>
        <line x1="786" y1="188" x2="784" y2="192" class="solid"></line>
        <line x1="792" y1="184" x2="824" y2="184" class="solid"></line>
        <path d="M 784,192 A 16,16 0,0,0 784,208" class="nofill"></path>
        <line x1="784" y1="208" x2="780" y2="216" class="solid"></line>
        <line x1="780" y1="216" x2="780" y2="340" class="solid"></line>
        <line x1="784" y1="208" x2="786" y2="212" class="solid"></line>
        <path d="M 786,212 A 8,8 0,0,0 792,216" class="nofill"></path>
        <line x1="792" y1="216" x2="896" y2="216" class="solid"></line>
        <path d="M 780,340 A 4,4 0,0,0 784,344" class="nofill"></path>
        <line x1="784" y1="344" x2="904" y2="344" class="solid"></line>
        <line x1="832" y1="184" x2="896" y2="184" class="solid"></line>
        <path d="M 896,184 A 8,8 0,0,1 902,188" class="nofill"></path>
        <line x1="902" y1="188" x2="904" y2="192" class="solid"></line>
        <path d="M 904,192 A 16,16 0,0,1 904,208" class="nofill"></path>
        <line x1="904" y1="208" x2="902" y2="212" class="solid"></line>
        <path d="M 902,212 A 8,8 0,0,1 896,216" class="nofill"></path>
        <line x1="904" y1="208" x2="908" y2="216" class="solid"></line>
        <line x1="908" y1="216" x2="908" y2="340" class="solid"></line>
        <path d="M 908,340 A 4,4 0,0,1 904,344" class="nofill"></path>
    </g>
    <g>
        <path d="M 48,248 A 8,8 0,0,0 42,252" class="nofill"></path>
        <line x1="42" y1="252" x2="36" y2="264" class="solid"></line>
        <line x1="48" y1="248" x2="76" y2="248" class="solid"></line>
        <line x1="76" y1="248" x2="76" y2="264" class="solid"></line>
        <line x1="36" y1="264" x2="36" y2="296" class="solid"></line>
        <path d="M 64,264 A 8,8 0,0,0 58,268" class="nofill"></path>
        <line x1="58" y1="268" x2="52" y2="280" class="solid"></line>
        <line x1="64" y1="264" x2="92" y2="264" class="solid"></line>
        <line x1="92" y1="264" x2="92" y2="312" class="solid"></line>
        <line x1="52" y1="280" x2="52" y2="312" class="solid"></line>
        <line x1="36" y1="296" x2="52" y2="296" class="solid"></line>
        <line x1="52" y1="312" x2="92" y2="312" class="solid"></line>
    </g>
    <g>
        <path d="M 120,248 A 8,8 0,0,0 114,252" class="nofill"></path>
        <line x1="114" y1="252" x2="108" y2="264" class="solid"></line>
        <line x1="120" y1="248" x2="148" y2="248" class="solid"></line>
        <line x1="148" y1="248" x2="148" y2="264" class="solid"></line>
        <line x1="108" y1="264" x2="108" y2="296" class="solid"></line>
        <path d="M 136,264 A 8,8 0,0,0 130,268" class="nofill"></path>
        <line x1="130" y1="268" x2="124" y2="280" class="solid"></line>
        <line x1="136" y1="264" x2="164" y2="264" class="solid"></line>
        <line x1="164" y1="264" x2="164" y2="312" class="solid"></line>
        <line x1="124" y1="280" x2="124" y2="312" class="solid"></line>
        <line x1="108" y1="296" x2="124" y2="296" class="solid"></line>
        <line x1="124" y1="312" x2="164" y2="312" class="solid"></line>
    </g>
    <g>
        <path d="M 408,248 A 8,8 0,0,0 402,252" class="nofill"></path>
        <line x1="402" y1="252" x2="396" y2="264" class="solid"></line>
        <line x1="408" y1="248" x2="436" y2="248" class="solid"></line>
        <line x1="436" y1="248" x2="436" y2="264" class="solid"></line>
        <line x1="396" y1="264" x2="396" y2="296" class="solid"></line>
        <path d="M 424,264 A 8,8 0,0,0 418,268" class="nofill"></path>
        <line x1="418" y1="268" x2="412" y2="280" class="solid"></line>
        <line x1="424" y1="264" x2="452" y2="264" class="solid"></line>
        <line x1="452" y1="264" x2="452" y2="312" class="solid"></line>
        <line x1="412" y1="280" x2="412" y2="312" class="solid"></line>
        <line x1="396" y1="296" x2="412" y2="296" class="solid"></line>
        <line x1="412" y1="312" x2="452" y2="312" class="solid"></line>
    </g>
    <g>
        <path d="M 480,248 A 8,8 0,0,0 474,252" class="nofill"></path>
        <line x1="474" y1="252" x2="468" y2="264" class="solid"></line>
        <line x1="480" y1="248" x2="508" y2="248" class="solid"></line>
        <line x1="508" y1="248" x2="508" y2="264" class="solid"></line>
        <line x1="468" y1="264" x2="468" y2="296" class="solid"></line>
        <path d="M 496,264 A 8,8 0,0,0 490,268" class="nofill"></path>
        <line x1="490" y1="268" x2="484" y2="280" class="solid"></line>
        <line x1="496" y1="264" x2="524" y2="264" class="solid"></line>
        <line x1="524" y1="264" x2="524" y2="312" class="solid"></line>
        <line x1="484" y1="280" x2="484" y2="312" class="solid"></line>
        <line x1="468" y1="296" x2="484" y2="296" class="solid"></line>
        <line x1="484" y1="312" x2="524" y2="312" class="solid"></line>
    </g>
    <g>
        <path d="M 448,328 A 8,8 0,0,0 442,332" class="nofill"></path>
        <line x1="442" y1="332" x2="436" y2="344" class="solid"></line>
        <line x1="448" y1="328" x2="476" y2="328" class="solid"></line>
        <line x1="476" y1="328" x2="476" y2="344" class="solid"></line>
        <line x1="436" y1="344" x2="436" y2="376" class="solid"></line>
        <path d="M 464,344 A 8,8 0,0,0 458,348" class="nofill"></path>
        <line x1="458" y1="348" x2="452" y2="360" class="solid"></line>
        <line x1="464" y1="344" x2="500" y2="344" class="solid"></line>
        <line x1="500" y1="344" x2="500" y2="392" class="solid"></line>
        <line x1="452" y1="360" x2="452" y2="392" class="solid"></line>
        <line x1="436" y1="376" x2="452" y2="376" class="solid"></line>
        <line x1="452" y1="392" x2="500" y2="392" class="solid"></line>
    </g>
    <g>
        <line x1="796" y1="252" x2="796" y2="264" class="solid"></line>
        <line x1="796" y1="264" x2="816" y2="264" class="solid"></line>
    </g>
    <g>
        <line x1="820" y1="268" x2="820" y2="312" class="solid"></line>
        <line x1="820" y1="296" x2="840" y2="296" class="solid"></line>
        <line x1="820" y1="312" x2="840" y2="312" class="solid"></line>
    </g>
</svg>