<svg xmlns="http://www.w3.org/2000/svg" width="632" height="256">
    <style>
        line, path, circle, rect, polygon{stroke:black;stroke-width:1;stroke-opacity:1;fill-opacity:1;stroke-linecap:round;stroke-linejoin:miter;}text{font-family:Monospace;font-size:14px;}rect.backdrop{stroke:none;fill:white;}.broken{stroke-dasharray:8;}.filled{fill:black;}.bg_filled{fill:white;}.nofill{fill:white;}.end_marked_arrow{marker-end:url(#arrow);}.start_marked_arrow{marker-start:url(#arrow);}.end_marked_diamond{marker-end:url(#diamond);}.start_marked_diamond{marker-start:url(#diamond);}.end_marked_circle{marker-end:url(#circle);}.start_marked_circle{marker-start:url(#circle);}.end_marked_open_circle{marker-end:url(#open_circle);}.start_marked_open_circle{marker-start:url(#open_circle);}.end_marked_big_open_circle{marker-end:url(#big_open_circle);}.start_marked_big_open_circle{marker-start:url(#big_open_circle);}
        <!--separator-->
        
    </style>
    <defs>
        <marker id="arrow" viewBox="-2 -2 8 8" refX="4" refY="2" markerWidth="7" markerHeight="7" orient="auto-start-reverse">
            <polygon points="0,0 0,4 4,2 0,0"></polygon>
        </marker>
        <marker id="diamond" viewBox="-2 -2 8 8" refX="4" refY="2" markerWidth="7" markerHeight="7" orient="auto-start-reverse">
            <polygon points="0,2 2,0 4,2 2,4 0,2"></polygon>
        </marker>
        <marker id="circle" viewBox="0 0 8 8" refX="4" refY="4" markerWidth="7" markerHeight="7" orient="auto-start-reverse">
            <circle cx="4" cy="4" r="2" class="filled"></circle>
        </marker>
        <marker id="open_circle" viewBox="0 0 8 8" refX="4" refY="4" markerWidth="7" markerHeight="7" orient="auto-start-reverse">
            <circle cx="4" cy="4" r="2" class="bg_filled"></circle>
        </marker>
        <marker id="big_open_circle" viewBox="0 0 8 8" refX="4" refY="4" markerWidth="7" markerHeight="7" orient="auto-start-reverse">
            <circle cx="4" cy="4" r="3" class="bg_filled"></circle>
        </marker>
    </defs>
    <rect class="backdrop" x="0" y="0" width="632" height="256"></rect>
    <text x="2" y="12" >Association</text>
    <text x="98" y="12" >Process</text>
    <text x="162" y="12" >Diagram</text>
    <text x="2" y="28" >............................</text>
    <text x="26" y="60" >Extraction</text>
    <text x="114" y="60" >Directory</text>
    <line x1="204" y1="80" x2="204" y2="96" class="solid"></line>
    <text x="42" y="108" >Master</text>
    <text x="98" y="108" >Extraction</text>
    <text x="250" y="108" >Drawing</text>
    <text x="314" y="108" >Associator</text>
    <text x="42" y="124" >List</text>
    <text x="58" y="188" >2d</text>
    <text x="146" y="188" >3d</text>
    <text x="458" y="108" >Drawing</text>
    <text x="522" y="108" >Association</text>
    <text x="458" y="124" >List</text>
    <g>
        <path d="M 16,40 A 8,8 0,0,0 10,44" class="nofill"></path>
        <line x1="10" y1="44" x2="8" y2="48" class="solid"></line>
        <line x1="16" y1="40" x2="192" y2="40" class="solid"></line>
        <path d="M 192,40 A 8,8 0,0,1 198,44" class="nofill"></path>
        <line x1="198" y1="44" x2="200" y2="48" class="solid"></line>
        <path d="M 8,48 A 16,16 0,0,0 8,64" class="nofill"></path>
        <path d="M 200,48 A 16,16 0,0,1 200,64" class="nofill"></path>
        <line x1="8" y1="64" x2="4" y2="72" class="solid"></line>
        <line x1="4" y1="72" x2="4" y2="228" class="solid"></line>
        <line x1="8" y1="64" x2="10" y2="68" class="solid"></line>
        <path d="M 10,68 A 8,8 0,0,0 16,72" class="nofill"></path>
        <line x1="16" y1="72" x2="192" y2="72" class="solid"></line>
        <line x1="200" y1="64" x2="198" y2="68" class="solid"></line>
        <path d="M 198,68 A 8,8 0,0,1 192,72" class="nofill"></path>
        <path d="M 4,228 A 4,4 0,0,0 8,232" class="nofill"></path>
        <line x1="8" y1="232" x2="196" y2="232" class="solid"></line>
        <line x1="204" y1="112" x2="204" y2="224" class="solid"></line>
        <path d="M 204,224 A 8,8 0,0,1 196,232" class="nofill"></path>
    </g>
    <g>
        <path d="M 40,88 A 8,8 0,0,0 34,92" class="nofill"></path>
        <line x1="34" y1="92" x2="28" y2="104" class="solid"></line>
        <line x1="40" y1="88" x2="188" y2="88" class="solid"></line>
        <line x1="188" y1="88" x2="188" y2="136" class="solid"></line>
        <line x1="28" y1="104" x2="28" y2="136" class="solid"></line>
        <line x1="188" y1="104" x2="224" y2="104" class="solid"></line>
        <polygon points="224,100 232,104 224,108" class="filled"></polygon>
        <line x1="28" y1="136" x2="188" y2="136" class="solid"></line>
    </g>
    <g>
        <path d="M 240,88 A 4,4 0,0,0 236,92" class="nofill"></path>
        <line x1="236" y1="92" x2="236" y2="116" class="solid"></line>
        <line x1="240" y1="88" x2="400" y2="88" class="solid"></line>
        <path d="M 400,88 A 4,4 0,0,1 404,92" class="nofill"></path>
        <line x1="404" y1="92" x2="404" y2="116" class="solid"></line>
        <line x1="404" y1="104" x2="424" y2="104" class="solid"></line>
        <polygon points="424,100 432,104 424,108" class="filled"></polygon>
        <path d="M 236,116 A 4,4 0,0,0 240,120" class="nofill"></path>
        <line x1="240" y1="120" x2="400" y2="120" class="solid"></line>
        <path d="M 404,116 A 4,4 0,0,1 400,120" class="nofill"></path>
    </g>
    <g>
        <path d="M 40,152 A 8,8 0,0,0 34,156" class="nofill"></path>
        <line x1="34" y1="156" x2="28" y2="168" class="solid"></line>
        <line x1="40" y1="152" x2="68" y2="152" class="solid"></line>
        <line x1="68" y1="152" x2="68" y2="168" class="solid"></line>
        <line x1="28" y1="168" x2="28" y2="200" class="solid"></line>
        <path d="M 56,168 A 8,8 0,0,0 50,172" class="nofill"></path>
        <line x1="50" y1="172" x2="44" y2="184" class="solid"></line>
        <line x1="56" y1="168" x2="84" y2="168" class="solid"></line>
        <line x1="84" y1="168" x2="84" y2="216" class="solid"></line>
        <line x1="44" y1="184" x2="44" y2="216" class="solid"></line>
        <line x1="28" y1="200" x2="44" y2="200" class="solid"></line>
        <line x1="44" y1="216" x2="84" y2="216" class="solid"></line>
    </g>
    <g>
        <path d="M 128,152 A 8,8 0,0,0 122,156" class="nofill"></path>
        <line x1="122" y1="156" x2="116" y2="168" class="solid"></line>
        <line x1="128" y1="152" x2="156" y2="152" class="solid"></line>
        <line x1="156" y1="152" x2="156" y2="168" class="solid"></line>
        <line x1="116" y1="168" x2="116" y2="200" class="solid"></line>
        <path d="M 144,168 A 8,8 0,0,0 138,172" class="nofill"></path>
        <line x1="138" y1="172" x2="132" y2="184" class="solid"></line>
        <line x1="144" y1="168" x2="172" y2="168" class="solid"></line>
        <line x1="172" y1="168" x2="172" y2="216" class="solid"></line>
        <line x1="132" y1="184" x2="132" y2="216" class="solid"></line>
        <line x1="116" y1="200" x2="132" y2="200" class="solid"></line>
        <line x1="132" y1="216" x2="172" y2="216" class="solid"></line>
    </g>
    <g>
        <path d="M 456,88 A 8,8 0,0,0 450,92" class="nofill"></path>
        <line x1="450" y1="92" x2="444" y2="104" class="solid"></line>
        <line x1="456" y1="88" x2="620" y2="88" class="solid"></line>
        <line x1="620" y1="88" x2="620" y2="136" class="solid"></line>
        <line x1="444" y1="104" x2="444" y2="136" class="solid"></line>
        <line x1="444" y1="136" x2="620" y2="136" class="solid"></line>
    </g>
</svg>