<svg xmlns="http://www.w3.org/2000/svg" width="648" height="256">
    <style>
        line, path, circle, rect, polygon{stroke:black;stroke-width:1;stroke-opacity:1;fill-opacity:1;stroke-linecap:round;stroke-linejoin:miter;}text{font-family:Monospace;font-size:14px;}rect.backdrop{stroke:none;fill:white;}.broken{stroke-dasharray:8;}.filled{fill:black;}.bg_filled{fill:white;}.nofill{fill:white;}.end_marked_arrow{marker-end:url(#arrow);}.start_marked_arrow{marker-start:url(#arrow);}.end_marked_diamond{marker-end:url(#diamond);}.start_marked_diamond{marker-start:url(#diamond);}.end_marked_circle{marker-end:url(#circle);}.start_marked_circle{marker-start:url(#circle);}.end_marked_open_circle{marker-end:url(#open_circle);}.start_marked_open_circle{marker-start:url(#open_circle);}.end_marked_big_open_circle{marker-end:url(#big_open_circle);}.start_marked_big_open_circle{marker-start:url(#big_open_circle);}
        <!--separator-->
        
    </style>
    <defs>
        <marker id="arrow" viewBox="-2 -2 8 8" refX="4" refY="2" markerWidth="7" markerHeight="7" orient="auto-start-reverse">
            <polygon points="0,0 0,4 4,2 0,0"></polygon>
        </marker>
        <marker id="diamond" viewBox="-2 -2 8 8" refX="4" refY="2" markerWidth="7" markerHeight="7" orient="auto-start-reverse">
            <polygon points="0,2 2,0 4,2 2,4 0,2"></polygon>
        </marker>
        <marker id="circle" viewBox="0 0 8 8" refX="4" refY="4" markerWidth="7" markerHeight="7" orient="auto-start-reverse">
            <circle cx="4" cy="4" r="2" class="filled"></circle>
        </marker>
        <marker id="open_circle" viewBox="0 0 8 8" refX="4" refY="4" markerWidth="7" markerHeight="7" orient="auto-start-reverse">
            <circle cx="4" cy="4" r="2" class="bg_filled"></circle>
        </marker>
        <marker id="big_open_circle" viewBox="0 0 8 8" refX="4" refY="4" markerWidth="7" markerHeight="7" orient="auto-start-reverse">
            <circle cx="4" cy="4" r="3" class="bg_filled"></circle>
        </marker>
    </defs>
    <rect class="backdrop" x="0" y="0" width="648" height="256"></rect>
    <text x="2" y="12" >Association</text>
    <text x="98" y="12" >Process</text>
    <text x="162" y="12" >Diagram</text>
    <text x="2" y="28" >............................</text>
    <text x="42" y="60" >Extraction</text>
    <text x="130" y="60" >Directory</text>
    <text x="58" y="108" >Master</text>
    <text x="114" y="108" >Extraction</text>
    <text x="266" y="108" >Drawing</text>
    <text x="330" y="108" >Associator</text>
    <text x="58" y="124" >List</text>
    <text x="74" y="188" >2d</text>
    <text x="162" y="188" >3d</text>
    <text x="474" y="108" >Drawing</text>
    <text x="538" y="108" >Association</text>
    <text x="474" y="124" >List</text>
    <g>
        <path d="M 32,40 A 8,8 0,0,0 26,44" class="nofill"></path>
        <line x1="26" y1="44" x2="24" y2="48" class="solid"></line>
        <line x1="32" y1="40" x2="208" y2="40" class="solid"></line>
        <path d="M 208,40 A 8,8 0,0,1 214,44" class="nofill"></path>
        <line x1="214" y1="44" x2="216" y2="48" class="solid"></line>
        <path d="M 24,48 A 16,16 0,0,0 24,64" class="nofill"></path>
        <path d="M 216,48 A 16,16 0,0,1 216,64" class="nofill"></path>
        <line x1="24" y1="64" x2="20" y2="72" class="solid"></line>
        <line x1="20" y1="72" x2="20" y2="228" class="solid"></line>
        <line x1="24" y1="64" x2="26" y2="68" class="solid"></line>
        <path d="M 26,68 A 8,8 0,0,0 32,72" class="nofill"></path>
        <line x1="32" y1="72" x2="208" y2="72" class="solid"></line>
        <line x1="216" y1="64" x2="214" y2="68" class="solid"></line>
        <path d="M 214,68 A 8,8 0,0,1 208,72" class="nofill"></path>
        <line x1="216" y1="64" x2="220" y2="72" class="solid"></line>
        <line x1="220" y1="72" x2="220" y2="96" class="solid"></line>
        <path d="M 20,228 A 4,4 0,0,0 24,232" class="nofill"></path>
        <line x1="24" y1="232" x2="212" y2="232" class="solid"></line>
        <line x1="220" y1="112" x2="220" y2="224" class="solid"></line>
        <path d="M 220,224 A 8,8 0,0,1 212,232" class="nofill"></path>
    </g>
    <g>
        <path d="M 56,88 A 8,8 0,0,0 50,92" class="nofill"></path>
        <line x1="50" y1="92" x2="44" y2="104" class="solid"></line>
        <line x1="56" y1="88" x2="204" y2="88" class="solid"></line>
        <line x1="204" y1="88" x2="204" y2="136" class="solid"></line>
        <line x1="44" y1="104" x2="44" y2="136" class="solid"></line>
        <line x1="204" y1="104" x2="240" y2="104" class="solid"></line>
        <polygon points="240,100 248,104 240,108" class="filled"></polygon>
        <line x1="44" y1="136" x2="204" y2="136" class="solid"></line>
    </g>
    <g>
        <path d="M 256,88 A 4,4 0,0,0 252,92" class="nofill"></path>
        <line x1="252" y1="92" x2="252" y2="116" class="solid"></line>
        <line x1="256" y1="88" x2="416" y2="88" class="solid"></line>
        <path d="M 416,88 A 4,4 0,0,1 420,92" class="nofill"></path>
        <line x1="420" y1="92" x2="420" y2="116" class="solid"></line>
        <line x1="420" y1="104" x2="440" y2="104" class="solid"></line>
        <polygon points="440,100 448,104 440,108" class="filled"></polygon>
        <path d="M 252,116 A 4,4 0,0,0 256,120" class="nofill"></path>
        <line x1="256" y1="120" x2="416" y2="120" class="solid"></line>
        <path d="M 420,116 A 4,4 0,0,1 416,120" class="nofill"></path>
    </g>
    <g>
        <path d="M 56,152 A 8,8 0,0,0 50,156" class="nofill"></path>
        <line x1="50" y1="156" x2="44" y2="168" class="solid"></line>
        <line x1="56" y1="152" x2="84" y2="152" class="solid"></line>
        <line x1="84" y1="152" x2="84" y2="168" class="solid"></line>
        <line x1="44" y1="168" x2="44" y2="200" class="solid"></line>
        <path d="M 72,168 A 8,8 0,0,0 66,172" class="nofill"></path>
        <line x1="66" y1="172" x2="60" y2="184" class="solid"></line>
        <line x1="72" y1="168" x2="100" y2="168" class="solid"></line>
        <line x1="100" y1="168" x2="100" y2="216" class="solid"></line>
        <line x1="60" y1="184" x2="60" y2="216" class="solid"></line>
        <line x1="44" y1="200" x2="60" y2="200" class="solid"></line>
        <line x1="60" y1="216" x2="100" y2="216" class="solid"></line>
    </g>
    <g>
        <path d="M 144,152 A 8,8 0,0,0 138,156" class="nofill"></path>
        <line x1="138" y1="156" x2="132" y2="168" class="solid"></line>
        <line x1="144" y1="152" x2="172" y2="152" class="solid"></line>
        <line x1="172" y1="152" x2="172" y2="168" class="solid"></line>
        <line x1="132" y1="168" x2="132" y2="200" class="solid"></line>
        <path d="M 160,168 A 8,8 0,0,0 154,172" class="nofill"></path>
        <line x1="154" y1="172" x2="148" y2="184" class="solid"></line>
        <line x1="160" y1="168" x2="188" y2="168" class="solid"></line>
        <line x1="188" y1="168" x2="188" y2="216" class="solid"></line>
        <line x1="148" y1="184" x2="148" y2="216" class="solid"></line>
        <line x1="132" y1="200" x2="148" y2="200" class="solid"></line>
        <line x1="148" y1="216" x2="188" y2="216" class="solid"></line>
    </g>
    <g>
        <path d="M 472,88 A 8,8 0,0,0 466,92" class="nofill"></path>
        <line x1="466" y1="92" x2="460" y2="104" class="solid"></line>
        <line x1="472" y1="88" x2="636" y2="88" class="solid"></line>
        <line x1="636" y1="88" x2="636" y2="136" class="solid"></line>
        <line x1="460" y1="104" x2="460" y2="136" class="solid"></line>
        <line x1="460" y1="136" x2="636" y2="136" class="solid"></line>
    </g>
</svg>