<svg xmlns="http://www.w3.org/2000/svg" width="808" height="576">
    <style>
        line, path, circle, rect, polygon{stroke:black;stroke-width:1;stroke-opacity:1;fill-opacity:1;stroke-linecap:round;stroke-linejoin:miter;}text{font-family:Monospace;font-size:14px;}rect.backdrop{stroke:none;fill:white;}.broken{stroke-dasharray:8;}.filled{fill:black;}.bg_filled{fill:white;}.nofill{fill:white;}.end_marked_arrow{marker-end:url(#arrow);}.start_marked_arrow{marker-start:url(#arrow);}.end_marked_diamond{marker-end:url(#diamond);}.start_marked_diamond{marker-start:url(#diamond);}.end_marked_circle{marker-end:url(#circle);}.start_marked_circle{marker-start:url(#circle);}.end_marked_open_circle{marker-end:url(#open_circle);}.start_marked_open_circle{marker-start:url(#open_circle);}.end_marked_big_open_circle{marker-end:url(#big_open_circle);}.start_marked_big_open_circle{marker-start:url(#big_open_circle);}
        <!--separator-->
        
    </style>
    <defs>
        <marker id="arrow" viewBox="-2 -2 8 8" refX="4" refY="2" markerWidth="7" markerHeight="7" orient="auto-start-reverse">
            <polygon points="0,0 0,4 4,2 0,0"></polygon>
        </marker>
        <marker id="diamond" viewBox="-2 -2 8 8" refX="4" refY="2" markerWidth="7" markerHeight="7" orient="auto-start-reverse">
            <polygon points="0,2 2,0 4,2 2,4 0,2"></polygon>
        </marker>
        <marker id="circle" viewBox="0 0 8 8" refX="4" refY="4" markerWidth="7" markerHeight="7" orient="auto-start-reverse">
            <circle cx="4" cy="4" r="2" class="filled"></circle>
        </marker>
        <marker id="open_circle" viewBox="0 0 8 8" refX="4" refY="4" markerWidth="7" markerHeight="7" orient="auto-start-reverse">
            <circle cx="4" cy="4" r="2" class="bg_filled"></circle>
        </marker>
        <marker id="big_open_circle" viewBox="0 0 8 8" refX="4" refY="4" markerWidth="7" markerHeight="7" orient="auto-start-reverse">
            <circle cx="4" cy="4" r="3" class="bg_filled"></circle>
        </marker>
    </defs>
    <rect class="backdrop" x="0" y="0" width="808" height="576"></rect>
    <text x="2" y="12" >Migration</text>
    <text x="82" y="12" >Stage</text>
    <text x="130" y="12" >2</text>
    <text x="146" y="12" >Process</text>
    <text x="210" y="12" >Diagramm</text>
    <text x="2" y="28" >...........................</text>
    <text x="194" y="60" >Stage</text>
    <text x="242" y="60" >2</text>
    <path d="M 264,48 A 16,16 0,0,0 264,64" class="nofill"></path>
    <text x="266" y="60" >Connected</text>
    <text x="346" y="60" >to</text>
    <text x="370" y="60" >MM</text>
    <path d="M 384,48 A 16,16 0,0,1 384,64" class="nofill"></path>
    <text x="130" y="92" >Rule</text>
    <text x="170" y="92" >based</text>
    <text x="218" y="92" >automated</text>
    <text x="362" y="92" >Interactive</text>
    <text x="130" y="108" >MM</text>
    <text x="154" y="108" >check</text>
    <line x1="192" y1="104" x2="200" y2="104" class="solid"></line>
    <text x="202" y="108" >in</text>
    <text x="362" y="108" >Conflict</text>
    <text x="434" y="108" >Resolution</text>
    <line x1="368" y1="120" x2="448" y2="120" class="solid"></line>
    <text x="18" y="204" >Staging</text>
    <text x="82" y="204" >Directory</text>
    <text x="418" y="204" >Model</text>
    <text x="466" y="204" >Manager</text>
    <text x="50" y="300" >2d</text>
    <text x="122" y="300" >3d</text>
    <text x="90" y="364" >log</text>
    <rect x="416" y="244" width="8" height="8" class="solid filled" rx="0"></rect>
    <circle cx="444" cy="264" r="4" class="nofill"></circle>
    <circle cx="468" cy="296" r="4" class="nofill"></circle>
    <circle cx="468" cy="312" r="4" class="nofill"></circle>
    <text x="2" y="444" >#</text>
    <text x="18" y="444" >Syntax</text>
    <line x1="0" y1="472" x2="24" y2="472" class="broken"></line>
    <text x="34" y="476" >bob</text>
    <text x="34" y="540" >KEYSIGHT</text>
    <line x1="96" y1="544" x2="104" y2="544" class="solid"></line>
    <text x="106" y="540" >MM</text>
    <line x1="120" y1="544" x2="128" y2="544" class="solid"></line>
    <text x="130" y="540" >ASSISTED</text>
    <line x1="192" y1="544" x2="200" y2="544" class="solid"></line>
    <text x="202" y="540" >CHECKIN</text>
    <circle cx="308" cy="536" r="4" class="nofill"></circle>
    <line x1="308" y1="540" x2="308" y2="560" class="solid"></line>
    <text x="346" y="540" >:STAGING</text>
    <line x1="408" y1="544" x2="416" y2="544" class="solid"></line>
    <text x="418" y="540" >DIRECTORY</text>
    <text x="554" y="540" >directory</text>
    <circle cx="676" cy="536" r="4" class="nofill"></circle>
    <line x1="676" y1="540" x2="676" y2="560" class="solid"></line>
    <text x="722" y="540" >COMPLETE</text>
    <g>
        <line x1="100" y1="32" x2="100" y2="136" class="solid"></line>
        <line x1="100" y1="40" x2="540" y2="40" class="solid"></line>
        <line x1="540" y1="40" x2="540" y2="136" class="solid"></line>
        <line x1="100" y1="136" x2="540" y2="136" class="solid"></line>
    </g>
    <g>
        <path d="M 120,72 A 4,4 0,0,0 116,76" class="nofill"></path>
        <line x1="116" y1="76" x2="116" y2="116" class="solid"></line>
        <line x1="120" y1="72" x2="320" y2="72" class="solid"></line>
        <path d="M 320,72 A 4,4 0,0,1 324,76" class="nofill"></path>
        <line x1="324" y1="76" x2="324" y2="116" class="solid"></line>
        <path d="M 116,116 A 4,4 0,0,0 120,120" class="nofill"></path>
        <line x1="120" y1="120" x2="128" y2="120" class="solid"></line>
        <line x1="136" y1="120" x2="320" y2="120" class="solid"></line>
        <path d="M 324,116 A 4,4 0,0,1 320,120" class="nofill"></path>
    </g>
    <g>
        <path d="M 352,72 A 4,4 0,0,0 348,76" class="nofill"></path>
        <line x1="348" y1="76" x2="348" y2="116" class="solid"></line>
        <line x1="352" y1="72" x2="520" y2="72" class="solid"></line>
        <path d="M 520,72 A 4,4 0,0,1 524,76" class="nofill"></path>
        <line x1="524" y1="76" x2="524" y2="116" class="solid"></line>
        <path d="M 348,116 A 4,4 0,0,0 352,120" class="nofill"></path>
        <line x1="352" y1="120" x2="360" y2="120" class="solid"></line>
        <line x1="456" y1="120" x2="520" y2="120" class="solid"></line>
        <path d="M 524,116 A 4,4 0,0,1 520,120" class="nofill"></path>
    </g>
    <g>
        <polygon points="128,124 132,112 136,124" class="filled"></polygon>
        <line x1="132" y1="124" x2="132" y2="180" class="solid"></line>
        <polygon points="128,180 136,180 132,192" class="filled"></polygon>
    </g>
    <g>
        <polygon points="360,124 364,112 368,124" class="filled"></polygon>
        <line x1="364" y1="124" x2="364" y2="196" class="solid"></line>
        <polygon points="176,196 168,200 176,204" class="filled"></polygon>
        <line x1="176" y1="200" x2="360" y2="200" class="solid"></line>
        <path d="M 364,196 A 4,4 0,0,1 360,200" class="nofill"></path>
    </g>
    <g>
        <polygon points="448,124 452,112 456,124" class="filled"></polygon>
        <line x1="452" y1="124" x2="452" y2="180" class="solid"></line>
        <polygon points="448,180 456,180 452,192" class="filled"></polygon>
    </g>
    <g>
        <path d="M 16,184 A 8,8 0,0,0 10,188" class="nofill"></path>
        <line x1="10" y1="188" x2="8" y2="192" class="solid"></line>
        <line x1="16" y1="184" x2="128" y2="184" class="solid"></line>
        <path d="M 8,192 A 16,16 0,0,0 8,208" class="nofill"></path>
        <line x1="8" y1="208" x2="4" y2="216" class="solid"></line>
        <line x1="4" y1="216" x2="4" y2="404" class="solid"></line>
        <line x1="8" y1="208" x2="10" y2="212" class="solid"></line>
        <path d="M 10,212 A 8,8 0,0,0 16,216" class="nofill"></path>
        <line x1="16" y1="216" x2="152" y2="216" class="solid"></line>
        <path d="M 4,404 A 4,4 0,0,0 8,408" class="nofill"></path>
        <line x1="8" y1="408" x2="160" y2="408" class="solid"></line>
        <line x1="136" y1="184" x2="152" y2="184" class="solid"></line>
        <path d="M 152,184 A 8,8 0,0,1 158,188" class="nofill"></path>
        <line x1="158" y1="188" x2="160" y2="192" class="solid"></line>
        <path d="M 160,192 A 16,16 0,0,1 160,208" class="nofill"></path>
        <line x1="160" y1="208" x2="158" y2="212" class="solid"></line>
        <path d="M 158,212 A 8,8 0,0,1 152,216" class="nofill"></path>
        <line x1="160" y1="208" x2="164" y2="216" class="solid"></line>
        <line x1="164" y1="216" x2="164" y2="404" class="solid"></line>
        <path d="M 164,404 A 4,4 0,0,1 160,408" class="nofill"></path>
    </g>
    <g>
        <path d="M 416,184 A 8,8 0,0,0 410,188" class="nofill"></path>
        <line x1="410" y1="188" x2="408" y2="192" class="solid"></line>
        <line x1="416" y1="184" x2="448" y2="184" class="solid"></line>
        <path d="M 408,192 A 16,16 0,0,0 408,208" class="nofill"></path>
        <line x1="408" y1="208" x2="404" y2="216" class="solid"></line>
        <line x1="404" y1="216" x2="404" y2="340" class="solid"></line>
        <line x1="408" y1="208" x2="410" y2="212" class="solid"></line>
        <path d="M 410,212 A 8,8 0,0,0 416,216" class="nofill"></path>
        <line x1="416" y1="216" x2="520" y2="216" class="solid"></line>
        <path d="M 404,340 A 4,4 0,0,0 408,344" class="nofill"></path>
        <line x1="408" y1="344" x2="528" y2="344" class="solid"></line>
        <line x1="456" y1="184" x2="520" y2="184" class="solid"></line>
        <path d="M 520,184 A 8,8 0,0,1 526,188" class="nofill"></path>
        <line x1="526" y1="188" x2="528" y2="192" class="solid"></line>
        <path d="M 528,192 A 16,16 0,0,1 528,208" class="nofill"></path>
        <line x1="528" y1="208" x2="526" y2="212" class="solid"></line>
        <path d="M 526,212 A 8,8 0,0,1 520,216" class="nofill"></path>
        <line x1="528" y1="208" x2="532" y2="216" class="solid"></line>
        <line x1="532" y1="216" x2="532" y2="340" class="solid"></line>
        <path d="M 532,340 A 4,4 0,0,1 528,344" class="nofill"></path>
    </g>
    <g>
        <path d="M 32,248 A 8,8 0,0,0 26,252" class="nofill"></path>
        <line x1="26" y1="252" x2="20" y2="264" class="solid"></line>
        <line x1="32" y1="248" x2="60" y2="248" class="solid"></line>
        <line x1="60" y1="248" x2="60" y2="264" class="solid"></line>
        <line x1="20" y1="264" x2="20" y2="296" class="solid"></line>
        <path d="M 48,264 A 8,8 0,0,0 42,268" class="nofill"></path>
        <line x1="42" y1="268" x2="36" y2="280" class="solid"></line>
        <line x1="48" y1="264" x2="76" y2="264" class="solid"></line>
        <line x1="76" y1="264" x2="76" y2="312" class="solid"></line>
        <line x1="36" y1="280" x2="36" y2="312" class="solid"></line>
        <line x1="20" y1="296" x2="36" y2="296" class="solid"></line>
        <line x1="36" y1="312" x2="76" y2="312" class="solid"></line>
    </g>
    <g>
        <path d="M 104,248 A 8,8 0,0,0 98,252" class="nofill"></path>
        <line x1="98" y1="252" x2="92" y2="264" class="solid"></line>
        <line x1="104" y1="248" x2="132" y2="248" class="solid"></line>
        <line x1="132" y1="248" x2="132" y2="264" class="solid"></line>
        <line x1="92" y1="264" x2="92" y2="296" class="solid"></line>
        <path d="M 120,264 A 8,8 0,0,0 114,268" class="nofill"></path>
        <line x1="114" y1="268" x2="108" y2="280" class="solid"></line>
        <line x1="120" y1="264" x2="148" y2="264" class="solid"></line>
        <line x1="148" y1="264" x2="148" y2="312" class="solid"></line>
        <line x1="108" y1="280" x2="108" y2="312" class="solid"></line>
        <line x1="92" y1="296" x2="108" y2="296" class="solid"></line>
        <line x1="108" y1="312" x2="148" y2="312" class="solid"></line>
    </g>
    <g>
        <path d="M 72,328 A 8,8 0,0,0 66,332" class="nofill"></path>
        <line x1="66" y1="332" x2="60" y2="344" class="solid"></line>
        <line x1="72" y1="328" x2="100" y2="328" class="solid"></line>
        <line x1="100" y1="328" x2="100" y2="344" class="solid"></line>
        <line x1="60" y1="344" x2="60" y2="376" class="solid"></line>
        <path d="M 88,344 A 8,8 0,0,0 82,348" class="nofill"></path>
        <line x1="82" y1="348" x2="76" y2="360" class="solid"></line>
        <line x1="88" y1="344" x2="124" y2="344" class="solid"></line>
        <line x1="124" y1="344" x2="124" y2="392" class="solid"></line>
        <line x1="76" y1="360" x2="76" y2="392" class="solid"></line>
        <line x1="60" y1="376" x2="76" y2="376" class="solid"></line>
        <line x1="76" y1="392" x2="124" y2="392" class="solid"></line>
    </g>
    <g>
        <line x1="420" y1="252" x2="420" y2="264" class="solid"></line>
        <line x1="420" y1="264" x2="440" y2="264" class="solid"></line>
    </g>
    <g>
        <line x1="444" y1="268" x2="444" y2="312" class="solid"></line>
        <line x1="444" y1="296" x2="464" y2="296" class="solid"></line>
        <line x1="444" y1="312" x2="464" y2="312" class="solid"></line>
    </g>
    <g>
        <path d="M 312,488 A 4,4 0,0,0 308,492" class="nofill"></path>
        <line x1="308" y1="492" x2="308" y2="532" class="solid"></line>
        <line x1="312" y1="488" x2="320" y2="488" class="solid"></line>
        <polygon points="328,484 320,488 328,492" class="filled"></polygon>
        <line x1="328" y1="488" x2="512" y2="488" class="solid"></line>
        <polygon points="520,484 512,488 520,492" class="filled"></polygon>
        <line x1="520" y1="488" x2="656" y2="488" class="solid"></line>
        <polygon points="664,484 656,488 664,492" class="filled"></polygon>
        <line x1="664" y1="488" x2="672" y2="488" class="solid"></line>
        <path d="M 672,488 A 4,4 0,0,1 676,492" class="nofill"></path>
        <line x1="676" y1="492" x2="676" y2="532" class="solid"></line>
    </g>
    <g>
        <line x1="20" y1="520" x2="276" y2="520" class="solid"></line>
        <line x1="20" y1="520" x2="20" y2="552" class="solid"></line>
        <line x1="276" y1="520" x2="276" y2="552" class="solid"></line>
        <line x1="276" y1="536" x2="288" y2="536" class="solid"></line>
        <polygon points="288,532 296,536 288,540" class="filled"></polygon>
        <line x1="296" y1="536" x2="304" y2="536" class="solid"></line>
        <line x1="20" y1="552" x2="276" y2="552" class="solid"></line>
    </g>
    <g>
        <path d="M 336,520 A 4,4 0,0,0 332,524" class="nofill"></path>
        <line x1="332" y1="524" x2="332" y2="548" class="solid"></line>
        <line x1="336" y1="520" x2="496" y2="520" class="solid"></line>
        <path d="M 496,520 A 4,4 0,0,1 500,524" class="nofill"></path>
        <line x1="500" y1="524" x2="500" y2="548" class="solid"></line>
        <line x1="500" y1="536" x2="512" y2="536" class="solid"></line>
        <polygon points="512,532 520,536 512,540" class="filled"></polygon>
        <path d="M 332,548 A 4,4 0,0,0 336,552" class="nofill"></path>
        <line x1="336" y1="552" x2="496" y2="552" class="solid"></line>
        <path d="M 500,548 A 4,4 0,0,1 496,552" class="nofill"></path>
        <path d="M 552,520 A 8,8 0,0,0 546,524" class="nofill"></path>
        <line x1="546" y1="524" x2="534" y2="548" class="solid"></line>
        <line x1="552" y1="520" x2="640" y2="520" class="solid"></line>
        <path d="M 640,520 A 3,3 0,0,1 642,524" class="nofill"></path>
        <line x1="642" y1="524" x2="630" y2="548" class="solid"></line>
        <line x1="520" y1="536" x2="540" y2="536" class="solid"></line>
        <line x1="636" y1="536" x2="656" y2="536" class="solid"></line>
        <polygon points="656,532 664,536 656,540" class="filled"></polygon>
        <line x1="664" y1="536" x2="672" y2="536" class="solid"></line>
        <path d="M 534,548 A 3,3 0,0,0 536,552" class="nofill"></path>
        <line x1="536" y1="552" x2="624" y2="552" class="solid"></line>
        <path d="M 630,548 A 8,8 0,0,1 624,552" class="nofill"></path>
    </g>
    <g>
        <line x1="708" y1="520" x2="796" y2="520" class="solid"></line>
        <line x1="708" y1="520" x2="708" y2="552" class="solid"></line>
        <line x1="796" y1="520" x2="796" y2="552" class="solid"></line>
        <line x1="708" y1="552" x2="796" y2="552" class="solid"></line>
        <line x1="680" y1="536" x2="688" y2="536" class="solid"></line>
        <polygon points="688,532 696,536 688,540" class="filled"></polygon>
        <line x1="696" y1="536" x2="708" y2="536" class="solid"></line>
    </g>
    <g>
        <line x1="0" y1="536" x2="8" y2="536" class="solid"></line>
        <polygon points="8,532 16,536 8,540" class="filled"></polygon>
    </g>
    <g>
        <line x1="312" y1="536" x2="320" y2="536" class="solid"></line>
        <polygon points="320,532 328,536 320,540" class="filled"></polygon>
    </g>
</svg>