<svg xmlns="http://www.w3.org/2000/svg" width="776" height="240">
    <style>
        line, path, circle, rect, polygon{stroke:black;stroke-width:1;stroke-opacity:1;fill-opacity:1;stroke-linecap:round;stroke-linejoin:miter;}text{font-family:Monospace;font-size:14px;}rect.backdrop{stroke:none;fill:white;}.broken{stroke-dasharray:8;}.filled{fill:black;}.bg_filled{fill:white;}.nofill{fill:white;}.end_marked_arrow{marker-end:url(#arrow);}.start_marked_arrow{marker-start:url(#arrow);}.end_marked_diamond{marker-end:url(#diamond);}.start_marked_diamond{marker-start:url(#diamond);}.end_marked_circle{marker-end:url(#circle);}.start_marked_circle{marker-start:url(#circle);}.end_marked_open_circle{marker-end:url(#open_circle);}.start_marked_open_circle{marker-start:url(#open_circle);}.end_marked_big_open_circle{marker-end:url(#big_open_circle);}.start_marked_big_open_circle{marker-start:url(#big_open_circle);}
        <!--separator-->
        
    </style>
    <defs>
        <marker id="arrow" viewBox="-2 -2 8 8" refX="4" refY="2" markerWidth="7" markerHeight="7" orient="auto-start-reverse">
            <polygon points="0,0 0,4 4,2 0,0"></polygon>
        </marker>
        <marker id="diamond" viewBox="-2 -2 8 8" refX="4" refY="2" markerWidth="7" markerHeight="7" orient="auto-start-reverse">
            <polygon points="0,2 2,0 4,2 2,4 0,2"></polygon>
        </marker>
        <marker id="circle" viewBox="0 0 8 8" refX="4" refY="4" markerWidth="7" markerHeight="7" orient="auto-start-reverse">
            <circle cx="4" cy="4" r="2" class="filled"></circle>
        </marker>
        <marker id="open_circle" viewBox="0 0 8 8" refX="4" refY="4" markerWidth="7" markerHeight="7" orient="auto-start-reverse">
            <circle cx="4" cy="4" r="2" class="bg_filled"></circle>
        </marker>
        <marker id="big_open_circle" viewBox="0 0 8 8" refX="4" refY="4" markerWidth="7" markerHeight="7" orient="auto-start-reverse">
            <circle cx="4" cy="4" r="3" class="bg_filled"></circle>
        </marker>
    </defs>
    <rect class="backdrop" x="0" y="0" width="776" height="240"></rect>
    <text x="34" y="60" >KEYSIGHT</text>
    <line x1="96" y1="64" x2="104" y2="64" class="solid"></line>
    <text x="106" y="60" >DRAWING</text>
    <line x1="160" y1="64" x2="168" y2="64" class="solid"></line>
    <text x="170" y="60" >ASSOCIATOR</text>
    <circle cx="300" cy="56" r="4" class="nofill"></circle>
    <line x1="300" y1="60" x2="300" y2="100" class="solid"></line>
    <text x="338" y="60" >:INPUT</text>
    <line x1="384" y1="64" x2="392" y2="64" class="solid"></line>
    <text x="394" y="60" >CSV</text>
    <text x="522" y="60" >file</text>
    <circle cx="644" cy="56" r="4" class="nofill"></circle>
    <line x1="644" y1="60" x2="644" y2="100" class="solid"></line>
    <text x="690" y="60" >COMPLETE</text>
    <circle cx="300" cy="104" r="4" class="nofill"></circle>
    <line x1="300" y1="108" x2="300" y2="148" class="solid"></line>
    <text x="338" y="108" >:OUTPUT</text>
    <line x1="392" y1="112" x2="400" y2="112" class="solid"></line>
    <text x="402" y="108" >CSV</text>
    <text x="522" y="108" >file</text>
    <circle cx="644" cy="104" r="4" class="nofill"></circle>
    <line x1="644" y1="108" x2="644" y2="148" class="solid"></line>
    <circle cx="300" cy="152" r="4" class="nofill"></circle>
    <text x="338" y="156" >:BY</text>
    <line x1="360" y1="160" x2="368" y2="160" class="solid"></line>
    <text x="370" y="156" >NAME</text>
    <text x="522" y="156" >:ON</text>
    <line x1="552" y1="144" x2="544" y2="160" class="solid"></line>
    <text x="554" y="156" >:OFF</text>
    <circle cx="644" cy="152" r="4" class="nofill"></circle>
    <text x="338" y="204" >:BY</text>
    <line x1="360" y1="208" x2="368" y2="208" class="solid"></line>
    <text x="370" y="204" >PARTNUMBER</text>
    <text x="522" y="204" >:ON</text>
    <line x1="552" y1="192" x2="544" y2="208" class="solid"></line>
    <text x="554" y="204" >:OFF</text>
    <g>
        <path d="M 304,8 A 4,4 0,0,0 300,12" class="nofill"></path>
        <line x1="300" y1="12" x2="300" y2="52" class="solid"></line>
        <line x1="304" y1="8" x2="312" y2="8" class="solid"></line>
        <polygon points="320,4 312,8 320,12" class="filled"></polygon>
        <line x1="320" y1="8" x2="480" y2="8" class="solid"></line>
        <polygon points="488,4 480,8 488,12" class="filled"></polygon>
        <line x1="488" y1="8" x2="624" y2="8" class="solid"></line>
        <polygon points="632,4 624,8 632,12" class="filled"></polygon>
        <line x1="632" y1="8" x2="640" y2="8" class="solid"></line>
        <path d="M 640,8 A 4,4 0,0,1 644,12" class="nofill"></path>
        <line x1="644" y1="12" x2="644" y2="52" class="solid"></line>
    </g>
    <g>
        <line x1="20" y1="40" x2="268" y2="40" class="solid"></line>
        <line x1="20" y1="40" x2="20" y2="72" class="solid"></line>
        <line x1="268" y1="40" x2="268" y2="72" class="solid"></line>
        <line x1="268" y1="56" x2="280" y2="56" class="solid"></line>
        <polygon points="280,52 288,56 280,60" class="filled"></polygon>
        <line x1="288" y1="56" x2="296" y2="56" class="solid"></line>
        <line x1="20" y1="72" x2="268" y2="72" class="solid"></line>
    </g>
    <g>
        <path d="M 328,40 A 4,4 0,0,0 324,44" class="nofill"></path>
        <line x1="324" y1="44" x2="324" y2="68" class="solid"></line>
        <line x1="328" y1="40" x2="424" y2="40" class="solid"></line>
        <path d="M 424,40 A 4,4 0,0,1 428,44" class="nofill"></path>
        <line x1="428" y1="44" x2="428" y2="68" class="solid"></line>
        <line x1="428" y1="56" x2="480" y2="56" class="solid"></line>
        <polygon points="480,52 488,56 480,60" class="filled"></polygon>
        <path d="M 324,68 A 4,4 0,0,0 328,72" class="nofill"></path>
        <line x1="328" y1="72" x2="424" y2="72" class="solid"></line>
        <path d="M 428,68 A 4,4 0,0,1 424,72" class="nofill"></path>
        <path d="M 520,40 A 8,8 0,0,0 514,44" class="nofill"></path>
        <line x1="514" y1="44" x2="502" y2="68" class="solid"></line>
        <line x1="520" y1="40" x2="568" y2="40" class="solid"></line>
        <path d="M 568,40 A 3,3 0,0,1 570,44" class="nofill"></path>
        <line x1="570" y1="44" x2="558" y2="68" class="solid"></line>
        <line x1="488" y1="56" x2="508" y2="56" class="solid"></line>
        <line x1="564" y1="56" x2="624" y2="56" class="solid"></line>
        <polygon points="624,52 632,56 624,60" class="filled"></polygon>
        <line x1="632" y1="56" x2="640" y2="56" class="solid"></line>
        <path d="M 502,68 A 3,3 0,0,0 504,72" class="nofill"></path>
        <line x1="504" y1="72" x2="552" y2="72" class="solid"></line>
        <path d="M 558,68 A 8,8 0,0,1 552,72" class="nofill"></path>
    </g>
    <g>
        <line x1="676" y1="40" x2="764" y2="40" class="solid"></line>
        <line x1="676" y1="40" x2="676" y2="72" class="solid"></line>
        <line x1="764" y1="40" x2="764" y2="72" class="solid"></line>
        <line x1="676" y1="72" x2="764" y2="72" class="solid"></line>
        <line x1="648" y1="56" x2="656" y2="56" class="solid"></line>
        <polygon points="656,52 664,56 656,60" class="filled"></polygon>
        <line x1="664" y1="56" x2="676" y2="56" class="solid"></line>
    </g>
    <g>
        <line x1="0" y1="56" x2="8" y2="56" class="solid"></line>
        <polygon points="8,52 16,56 8,60" class="filled"></polygon>
    </g>
    <g>
        <line x1="304" y1="56" x2="312" y2="56" class="solid"></line>
        <polygon points="312,52 320,56 312,60" class="filled"></polygon>
    </g>
    <g>
        <path d="M 328,88 A 4,4 0,0,0 324,92" class="nofill"></path>
        <line x1="324" y1="92" x2="324" y2="116" class="solid"></line>
        <line x1="328" y1="88" x2="432" y2="88" class="solid"></line>
        <path d="M 432,88 A 4,4 0,0,1 436,92" class="nofill"></path>
        <line x1="436" y1="92" x2="436" y2="116" class="solid"></line>
        <line x1="436" y1="104" x2="480" y2="104" class="solid"></line>
        <polygon points="480,100 488,104 480,108" class="filled"></polygon>
        <path d="M 324,116 A 4,4 0,0,0 328,120" class="nofill"></path>
        <line x1="328" y1="120" x2="432" y2="120" class="solid"></line>
        <path d="M 436,116 A 4,4 0,0,1 432,120" class="nofill"></path>
        <path d="M 520,88 A 8,8 0,0,0 514,92" class="nofill"></path>
        <line x1="514" y1="92" x2="502" y2="116" class="solid"></line>
        <line x1="520" y1="88" x2="568" y2="88" class="solid"></line>
        <path d="M 568,88 A 3,3 0,0,1 570,92" class="nofill"></path>
        <line x1="570" y1="92" x2="558" y2="116" class="solid"></line>
        <line x1="488" y1="104" x2="508" y2="104" class="solid"></line>
        <line x1="564" y1="104" x2="624" y2="104" class="solid"></line>
        <polygon points="624,100 632,104 624,108" class="filled"></polygon>
        <line x1="632" y1="104" x2="640" y2="104" class="solid"></line>
        <path d="M 502,116 A 3,3 0,0,0 504,120" class="nofill"></path>
        <line x1="504" y1="120" x2="552" y2="120" class="solid"></line>
        <path d="M 558,116 A 8,8 0,0,1 552,120" class="nofill"></path>
    </g>
    <g>
        <line x1="304" y1="104" x2="312" y2="104" class="solid"></line>
        <polygon points="312,100 320,104 312,108" class="filled"></polygon>
    </g>
    <g>
        <path d="M 328,136 A 4,4 0,0,0 324,140" class="nofill"></path>
        <line x1="324" y1="140" x2="324" y2="164" class="solid"></line>
        <line x1="328" y1="136" x2="408" y2="136" class="solid"></line>
        <path d="M 408,136 A 4,4 0,0,1 412,140" class="nofill"></path>
        <line x1="412" y1="140" x2="412" y2="164" class="solid"></line>
        <line x1="412" y1="152" x2="480" y2="152" class="solid"></line>
        <polygon points="480,148 488,152 480,156" class="filled"></polygon>
        <path d="M 324,164 A 4,4 0,0,0 328,168" class="nofill"></path>
        <line x1="328" y1="168" x2="408" y2="168" class="solid"></line>
        <path d="M 412,164 A 4,4 0,0,1 408,168" class="nofill"></path>
        <path d="M 520,136 A 8,8 0,0,0 514,140" class="nofill"></path>
        <line x1="514" y1="140" x2="502" y2="164" class="solid"></line>
        <line x1="520" y1="136" x2="600" y2="136" class="solid"></line>
        <path d="M 600,136 A 3,3 0,0,1 602,140" class="nofill"></path>
        <line x1="602" y1="140" x2="590" y2="164" class="solid"></line>
        <line x1="488" y1="152" x2="508" y2="152" class="solid"></line>
        <line x1="596" y1="152" x2="624" y2="152" class="solid"></line>
        <polygon points="624,148 632,152 624,156" class="filled"></polygon>
        <line x1="632" y1="152" x2="640" y2="152" class="solid"></line>
        <path d="M 502,164 A 3,3 0,0,0 504,168" class="nofill"></path>
        <line x1="504" y1="168" x2="584" y2="168" class="solid"></line>
        <path d="M 590,164 A 8,8 0,0,1 584,168" class="nofill"></path>
    </g>
    <g>
        <line x1="300" y1="156" x2="300" y2="196" class="solid"></line>
        <path d="M 300,196 A 4,4 0,0,0 304,200" class="nofill"></path>
        <line x1="304" y1="200" x2="312" y2="200" class="solid"></line>
        <polygon points="312,196 320,200 312,204" class="filled"></polygon>
    </g>
    <g>
        <line x1="304" y1="152" x2="312" y2="152" class="solid"></line>
        <polygon points="312,148 320,152 312,156" class="filled"></polygon>
    </g>
    <g>
        <line x1="644" y1="156" x2="644" y2="196" class="solid"></line>
        <path d="M 520,184 A 8,8 0,0,0 514,188" class="nofill"></path>
        <line x1="514" y1="188" x2="502" y2="212" class="solid"></line>
        <line x1="520" y1="184" x2="600" y2="184" class="solid"></line>
        <path d="M 600,184 A 3,3 0,0,1 602,188" class="nofill"></path>
        <line x1="602" y1="188" x2="590" y2="212" class="solid"></line>
        <line x1="488" y1="200" x2="508" y2="200" class="solid"></line>
        <line x1="596" y1="200" x2="624" y2="200" class="solid"></line>
        <polygon points="624,196 632,200 624,204" class="filled"></polygon>
        <line x1="632" y1="200" x2="640" y2="200" class="solid"></line>
        <path d="M 644,196 A 4,4 0,0,1 640,200" class="nofill"></path>
        <path d="M 502,212 A 3,3 0,0,0 504,216" class="nofill"></path>
        <line x1="504" y1="216" x2="584" y2="216" class="solid"></line>
        <path d="M 590,212 A 8,8 0,0,1 584,216" class="nofill"></path>
        <path d="M 328,184 A 4,4 0,0,0 324,188" class="nofill"></path>
        <line x1="324" y1="188" x2="324" y2="212" class="solid"></line>
        <line x1="328" y1="184" x2="456" y2="184" class="solid"></line>
        <path d="M 456,184 A 4,4 0,0,1 460,188" class="nofill"></path>
        <line x1="460" y1="188" x2="460" y2="212" class="solid"></line>
        <line x1="460" y1="200" x2="480" y2="200" class="solid"></line>
        <polygon points="480,196 488,200 480,204" class="filled"></polygon>
        <path d="M 324,212 A 4,4 0,0,0 328,216" class="nofill"></path>
        <line x1="328" y1="216" x2="456" y2="216" class="solid"></line>
        <path d="M 460,212 A 4,4 0,0,1 456,216" class="nofill"></path>
    </g>
</svg>